<svg width="39" height="49" viewBox="0 0 39 49" fill="none" xmlns="http://www.w3.org/2000/svg">
<path d="M6.70009 36.3741C6.49603 36.4195 6.29197 36.3628 6.0879 36.2041C5.90651 36.0453 5.81582 35.8526 5.81582 35.6259V33.2111C5.81582 32.9844 5.88384 32.7803 6.01988 32.5989C6.1786 32.4175 6.38266 32.2815 6.63207 32.1908L7.82245 31.7147C8.59335 31.3972 9.29624 31.0004 9.93111 30.5243C10.566 30.0255 11.0648 29.3679 11.4276 28.5517C11.7904 27.7127 11.9717 26.6357 11.9717 25.3207C11.9717 24.0963 11.8244 23.1213 11.5296 22.3957C11.2575 21.6475 10.7814 21.1147 10.1012 20.7972C9.42095 20.4798 8.47998 20.3211 7.27828 20.3211H6.35999C6.13325 20.3211 5.94052 20.2417 5.78181 20.083C5.62309 19.9243 5.54373 19.7316 5.54373 19.5048V17.3622C5.54373 17.1354 5.62309 16.954 5.78181 16.818C5.94052 16.6593 6.13325 16.5799 6.35999 16.5799H8.09453C10.1352 16.5799 11.7563 16.8974 12.9581 17.5322C14.1824 18.1444 15.0667 19.0967 15.6109 20.3891C16.1551 21.6588 16.4271 23.2914 16.4271 25.2867C16.4271 26.8511 16.1891 28.2229 15.7129 29.4019C15.2594 30.581 14.6359 31.6013 13.8423 32.4629C13.0714 33.3018 12.1871 34.0047 11.1895 34.5716C10.1919 35.1384 9.1602 35.5919 8.09453 35.932L6.70009 36.3741ZM7.3463 20.3211L2.44877 20.2871C2.22203 20.2871 2.0293 20.2191 1.87058 20.083C1.71187 19.9243 1.63251 19.7316 1.63251 19.5048V12.6687C1.63251 12.442 1.71187 12.2492 1.87058 12.0905C2.0293 11.9318 2.22203 11.8525 2.44877 11.8525H4.89753C5.14694 11.8525 5.33967 11.9318 5.47571 12.0905C5.63443 12.2492 5.71379 12.442 5.71379 12.6687V16.5799H7.41432L7.3463 20.3211ZM25.2734 41.4757C24.7745 41.4757 24.5251 41.2263 24.5251 40.7275V39.3671C24.5251 38.8682 24.7745 38.6188 25.2734 38.6188H26.7698C27.2686 38.6188 27.5181 38.8682 27.5181 39.3671V40.7275C27.5181 41.2263 27.2686 41.4757 26.7698 41.4757H25.2734ZM29.7968 41.4757C29.2979 41.4757 29.0485 41.2263 29.0485 40.7275V39.3671C29.0485 38.8682 29.2979 38.6188 29.7968 38.6188H31.2592C31.758 38.6188 32.0075 38.8682 32.0075 39.3671V40.7275C32.0075 41.2263 31.758 41.4757 31.2592 41.4757H29.7968ZM33.6118 36C33.317 36 33.0903 35.9206 32.9316 35.7619C32.7729 35.6032 32.6482 35.4785 32.5575 35.3878L20.2116 17.8383C20.0756 17.6343 20.0076 17.4529 20.0076 17.2942C20.0076 17.0901 20.0756 16.92 20.2116 16.784C20.3477 16.6479 20.5177 16.5799 20.7218 16.5799H23.4086C23.726 16.5799 23.9641 16.6593 24.1228 16.818C24.2816 16.9767 24.4063 17.1128 24.497 17.2261L36.9448 34.7416C37.0355 34.8776 37.0922 34.991 37.1149 35.0817C37.1376 35.1497 37.1489 35.2178 37.1489 35.2858C37.1489 35.4898 37.0696 35.6599 36.9108 35.7959C36.7748 35.932 36.6161 36 36.4347 36H33.6118ZM20.5517 36C20.325 36 20.1323 35.9206 19.9735 35.7619C19.8148 35.6032 19.7355 35.3991 19.7355 35.1497V30.4563C19.7355 29.2999 19.8375 28.2456 20.0416 27.2933C20.2683 26.341 20.6764 25.4567 21.2659 24.6404C21.8781 23.8015 22.7511 23.0079 23.8848 22.2597L25.9934 25.3207C25.3132 25.7741 24.8031 26.307 24.4629 26.9192C24.1228 27.5087 23.8961 28.1209 23.7827 28.7557C23.692 29.3679 23.6467 29.9574 23.6467 30.5243V35.1497C23.6467 35.3991 23.5673 35.6032 23.4086 35.7619C23.2499 35.9206 23.0572 36 22.8304 36H20.5517ZM32.1153 29.606L30.1087 26.545C31.0383 26.0916 31.6959 25.6154 32.0813 25.1166C32.4668 24.5951 32.6935 24.0623 32.7615 23.5181C32.8522 22.9739 32.8976 22.4184 32.8976 21.8516V17.4302C32.8976 17.1808 32.9656 16.9767 33.1016 16.818C33.2604 16.6593 33.4644 16.5799 33.7138 16.5799H36.0946C36.344 16.5799 36.5481 16.6593 36.7068 16.818C36.8655 16.9767 36.9448 17.1808 36.9448 17.4302V22.0216C36.9448 22.9513 36.8201 23.8582 36.5707 24.7425C36.344 25.6268 35.8905 26.477 35.2103 27.2933C34.5301 28.0869 33.4984 28.8578 32.1153 29.606Z" fill="#4B5563"/>
</svg>
