<svg width="18" height="18" viewBox="0 0 18 18" fill="none" xmlns="http://www.w3.org/2000/svg">
<g clip-path="url(#clip0_1484_2676)">
<path d="M18 9.00002C18 4.02945 13.9706 2.09808e-05 9 2.09808e-05C4.02943 2.09808e-05 0 4.02945 0 9.00002C0 13.4922 3.29117 17.2155 7.59375 17.8907V11.6016H5.30859V9.00002H7.59375V7.01721C7.59375 4.76158 8.93739 3.51565 10.9932 3.51565C11.9779 3.51565 13.0078 3.69143 13.0078 3.69143V5.90627H11.8729C10.7549 5.90627 10.4062 6.60003 10.4062 7.31176V9.00002H12.9023L12.5033 11.6016H10.4062V17.8907C14.7088 17.2155 18 13.4922 18 9.00002Z" fill="#1877F2"/>
<path d="M12.5033 11.6016L12.9023 9H10.4062V7.31174C10.4062 6.60001 10.7549 5.90625 11.8729 5.90625H13.0078V3.69141C13.0078 3.69141 11.9779 3.51562 10.9932 3.51562C8.93739 3.51562 7.59375 4.76156 7.59375 7.01719V9H5.30859V11.6016H7.59375V17.8907C8.05196 17.9626 8.52159 18 9 18C9.47841 18 9.94804 17.9626 10.4062 17.8907V11.6016H12.5033Z" fill="white"/>
</g>
<defs>
<clipPath id="clip0_1484_2676">
<rect width="18" height="18" fill="white"/>
</clipPath>
</defs>
</svg>
