<?xml version="1.0" encoding="utf-8"?>
<svg preserveAspectRatio="xMidYMid meet" viewBox="204.8 204.8 616.448 620.544" xmlns="http://www.w3.org/2000/svg" version="1.0" style="max-height: 500px" width="616.448" height="620.544" xmlns:bx="https://boxy-svg.com"><defs><bx:export><bx:file format="svg"/><bx:file format="webp" excluded="true"/><bx:file format="png" excluded="true"/></bx:export></defs><g fill="#111a1a"><path d="M230.75 695.65 c-2.70 -0.80 -4.75 -2.75 -4.75 -4.50 0 -0.60 -0.20 -1.25 -0.50 -1.40 -0.65 -0.40 -0.65 -9.60 0 -10 0.30 -0.15 0.50 -0.70 0.50 -1.20 0 -2.05 5.65 -6.05 8.50 -6.05 1.90 0 8 -3.60 11 -6.45 7.75 -7.40 14.95 -21.15 18.75 -35.80 2.85 -10.90 3.40 -15.90 3.45 -30.50 0 -7.40 -0.15 -14.85 -0.35 -16.50 -0.60 -4.85 -4.10 -19 -5.60 -22.50 -0.35 -0.80 -1.15 -2.85 -1.75 -4.50 -3.55 -9.30 -10.80 -20.95 -15.55 -24.90 -3.40 -2.85 -8.95 -5.45 -14.05 -6.55 -1.95 -0.45 -4.40 -2.70 -4.40 -4.05 0 -0.65 -0.25 -1.35 -0.50 -1.50 -0.65 -0.40 -0.65 -8 0.05 -10.50 0.65 -2.35 2.50 -4.45 5.05 -5.80 1.70 -0.85 3.10 -0.95 17.40 -0.95 9.05 0 15.50 -0.20 15.40 -0.45 -0.05 -0.25 -1.60 -2 -3.40 -3.95 -3.25 -3.50 -7.30 -8.75 -8.50 -11.10 -0.35 -0.70 -0.80 -1.35 -1 -1.50 -0.60 -0.40 -5.80 -10.30 -8.70 -16.60 -1.60 -3.40 -5.15 -14.15 -5.35 -16.15 0 -0.10 -0.25 -0.95 -0.50 -1.85 -0.30 -0.90 -0.60 -2.45 -0.75 -3.40 -0.10 -0.95 -0.35 -2.30 -0.50 -3 -0.60 -2.25 -0.70 -4.10 -1.10 -15.25 -0.20 -6.05 -0.25 -11.20 -0.05 -11.50 0.15 -0.25 0.60 -2.75 0.90 -5.50 0.35 -2.75 0.85 -5.55 1.10 -6.25 0.25 -0.70 0.50 -1.90 0.55 -2.75 0.05 -0.80 0.25 -1.70 0.40 -2 0.20 -0.25 0.60 -1.45 0.90 -2.60 0.35 -1.20 0.85 -3.10 1.20 -4.25 0.30 -1.20 0.75 -2.35 1 -2.65 0.20 -0.25 0.40 -0.80 0.40 -1.25 0 -0.45 0.45 -1.75 1 -2.90 0.55 -1.10 1 -2.35 1 -2.75 0 -0.35 0.20 -0.85 0.45 -1.10 0.20 -0.30 1.40 -2.40 2.60 -4.75 1.15 -2.35 2.75 -5.20 3.55 -6.35 0.75 -1.15 1.40 -2.30 1.40 -2.60 0 -0.30 0.20 -0.55 0.40 -0.55 0.25 0 0.75 -0.60 1.15 -1.35 0.40 -0.80 0.80 -1.50 0.95 -1.65 0.15 -0.15 0.85 -1.05 1.50 -2 2.35 -3.40 10.40 -11.75 15.65 -16.20 3.25 -2.80 9.05 -6.80 9.85 -6.80 0.25 0 0.50 -0.20 0.50 -0.45 0 -0.50 12.95 -6.95 17 -8.45 3.50 -1.25 7.75 -2.50 10 -2.90 0.95 -0.15 2.20 -0.50 2.75 -0.70 0.55 -0.25 2.25 -0.55 3.75 -0.70 1.50 -0.15 3.45 -0.35 4.25 -0.50 0.85 -0.10 108.05 -0.25 238.35 -0.25 185.25 -0.05 237.10 0.05 238.25 0.55 2.50 1.05 5 4.25 5.40 6.85 0.50 3.10 0.35 8.15 -0.25 8.75 -0.30 0.30 -0.50 0.90 -0.50 1.35 0 1 -2.80 3.95 -4.55 4.75 -0.65 0.35 -2.85 1.10 -4.90 1.75 -4.35 1.35 -8.10 3.90 -12.45 8.45 -2.95 3 -6.10 7.05 -6.10 7.75 0 0.15 -0.40 0.75 -0.90 1.30 -0.55 0.50 -1.25 1.60 -1.65 2.35 -0.40 0.75 -1.70 3.15 -2.95 5.35 -1.30 2.20 -2.70 5 -3.20 6.25 -0.50 1.25 -1.20 2.95 -1.55 3.75 -0.40 0.85 -1.40 3.85 -2.25 6.75 -1.85 6.05 -1.95 6.45 -2 6.75 -0.05 0.15 -0.30 0.95 -0.55 1.85 -0.25 0.90 -0.95 4.45 -1.55 7.90 -0.85 5.10 -1.05 8.35 -1.05 17.50 -0.05 10.70 0.25 16.35 1 18 0.30 0.75 0.95 4.20 1.45 7.75 0.15 1.10 0.50 2.20 0.75 2.50 0.25 0.25 0.45 1.05 0.45 1.75 0 0.70 0.20 1.50 0.45 1.75 0.20 0.30 0.70 1.65 1.05 3 0.35 1.40 1.05 3.40 1.50 4.50 0.50 1.10 1.15 2.80 1.50 3.75 1.20 3.35 6.65 13.80 9.10 17.40 2.80 4.20 7.10 8.65 10.40 10.90 2.15 1.40 8.35 3.70 10.10 3.70 1.40 0 5.10 1.80 6.25 3.05 1.80 2 2.75 4.85 2.75 8.50 0 3.40 -0.80 6.65 -1.95 7.85 -0.35 0.35 -0.65 0.85 -0.65 1.05 0 0.20 -0.95 0.90 -2.10 1.60 -2.15 1.20 -2.25 1.20 -17.75 1.35 -8.60 0.10 -15.65 0.25 -15.65 0.35 0 0.10 0.50 0.75 1.15 1.40 2.30 2.45 5.85 7.45 5.85 8.30 0 0.30 0.20 0.55 0.40 0.55 0.25 0 0.75 0.60 1.15 1.40 0.40 0.75 0.85 1.45 1 1.60 0.70 0.55 9 18 10.50 22 2.55 6.95 4.40 13.65 5.10 18.35 0.10 0.60 0.30 1.30 0.50 1.45 0.20 0.20 0.35 1.65 0.35 3.20 0 1.55 0.20 3 0.50 3.30 0.30 0.30 0.50 4.95 0.50 11.45 0.05 11.30 -0.05 13.95 -0.65 15.25 -0.20 0.40 -0.40 1.75 -0.50 3 -0.10 1.25 -0.30 2.60 -0.45 3 -0.15 0.40 -0.55 2.10 -0.90 3.75 -0.60 3.15 -2.20 8.15 -4.55 14.05 -1.60 4.05 -5 10.85 -5.55 11.10 -0.25 0.10 -0.40 0.40 -0.40 0.60 0 0.45 -3.40 6.05 -4.40 7.25 -0.20 0.30 -1.15 1.60 -2.10 3 -2.35 3.45 -9.50 11.05 -12.45 13.25 -0.55 0.45 -1.75 1.45 -2.65 2.25 -2 1.80 -6.15 4.75 -6.65 4.75 -0.20 0 -1.45 0.75 -2.75 1.70 -5.05 3.65 -15.40 8.40 -22.50 10.35 -0.95 0.30 -2.55 0.75 -3.50 1 -2.35 0.70 -4.05 1 -5.15 1 -0.45 0 -0.85 0.20 -0.85 0.50 0 0.25 -1.20 0.45 -2.65 0.45 -1.50 0 -2.85 0.15 -3.05 0.40 -0.20 0.20 -1.30 0.45 -2.45 0.55 -1.15 0.10 -107.75 0.25 -236.85 0.35 -209.25 0.10 -235 0.05 -237.25 -0.65z m322.60 -25.55 c2.25 -1.30 4.95 -3 6 -3.85 3.55 -2.75 11.05 -10.65 12.20 -12.85 0.35 -0.65 0.75 -1.25 0.95 -1.40 0.15 -0.15 1 -1.50 1.80 -3 0.85 -1.50 1.95 -3.55 2.50 -4.50 0.55 -0.95 1.75 -3.55 2.65 -5.75 0.90 -2.20 1.95 -4.65 2.30 -5.50 1.85 -4.35 5.25 -19 5.25 -22.55 0 -0.95 0.25 -1.70 0.50 -1.70 0.65 0 0.70 -20.60 0.05 -21.30 -0.30 -0.25 -0.55 -1.70 -0.60 -3.20 -0.10 -1.50 -0.35 -3 -0.55 -3.30 -0.20 -0.30 -0.45 -1.50 -0.60 -2.65 -0.10 -1.15 -0.30 -2.20 -0.50 -2.40 -0.15 -0.15 -0.30 -0.95 -0.30 -1.75 0 -0.75 -0.20 -1.40 -0.50 -1.40 -0.25 0 -0.50 -0.50 -0.50 -1.05 0 -1.10 -2.50 -8.85 -3.85 -11.95 -4.25 -9.80 -14.45 -23 -21.05 -27.35 -1.55 -1.05 -2.95 -2 -3.10 -2.20 -0.15 -0.20 -2.15 -1.35 -4.50 -2.55 l-4.25 -2.15 -137.10 -0.15 c-75.45 -0.05 -137.15 0 -137.15 0.15 0 0.10 0.55 1.20 1.25 2.45 0.65 1.20 1.70 3.40 2.25 4.85 0.60 1.50 1.60 3.80 2.20 5.20 0.60 1.35 1.40 3.30 1.75 4.25 0.40 0.95 0.95 2.45 1.30 3.25 0.85 2 2.75 7.60 3.25 9.50 0.25 0.85 0.90 3.10 1.50 5 1.10 3.75 1.85 6.95 2.30 9.75 0.15 0.95 0.40 2.10 0.55 2.50 0.15 0.40 0.35 1.55 0.50 2.50 0.10 0.95 0.40 2.20 0.65 2.75 0.30 0.55 0.60 2.60 0.75 4.50 0.10 1.95 0.40 5.35 0.65 7.65 0.95 9.40 0.05 26.15 -1.90 34.90 -0.30 1.25 -0.40 2.50 -0.25 2.75 0.20 0.25 0.10 0.45 -0.15 0.45 -0.30 0 -0.60 0.85 -0.75 1.90 -0.15 1 -0.75 3.75 -1.35 6.10 -0.60 2.35 -1.25 5.05 -1.50 6 -0.45 1.95 -1.90 6.70 -2.50 8.25 -0.20 0.55 -0.90 2.35 -1.50 4 -1.55 4.20 -3.35 8.30 -5.85 13.25 -1.20 2.35 -2.15 4.40 -2.15 4.60 0 0.25 61.95 0.40 137.65 0.40 l137.60 0 4.10 -2.40z m150.50 -0.35 c7.80 -1.45 12.60 -2.80 16.80 -4.85 1.55 -0.75 3 -1.40 3.15 -1.40 0.85 0 10.05 -5.85 12.65 -8 10.30 -8.55 16.55 -17.15 22.30 -30.75 2.35 -5.60 4.55 -14.95 5.05 -21.50 0.90 -11.80 -2.55 -27.60 -8.60 -39.05 -6 -11.35 -13.30 -19.30 -23.95 -26.05 -7.60 -4.80 -12.50 -6.85 -22.40 -9.40 l-6.90 -1.75 -54.70 0 -54.75 0 1.75 2.30 c1.70 2.20 3.95 5.90 7.10 11.70 1.95 3.50 5.20 11.30 6.55 15.50 2.15 6.80 3.15 10.45 3.60 12.80 0.25 1.35 0.65 3.35 0.95 4.45 2.20 8.25 2.75 29.80 1 41.50 -1.80 12.45 -5.60 25.60 -10.10 35.35 -2.55 5.45 -7.80 14.80 -9.85 17.40 -0.70 0.95 -1.50 2.05 -1.70 2.40 -0.30 0.45 10.35 0.60 52.40 0.60 l52.75 0 6.90 -1.25z m45.15 -168.30 c0 -0.30 -0.40 -1.15 -0.90 -1.85 -0.55 -0.75 -1.50 -2.60 -2.25 -4.10 -3.65 -7.85 -4.85 -10.50 -4.85 -10.75 0 -0.15 -0.45 -1.20 -0.95 -2.40 -2.30 -5.10 -5.80 -16.15 -7.55 -23.85 -3.90 -17.45 -4.95 -27.60 -4.10 -40.30 0.35 -4.90 0.80 -9.10 1.05 -9.40 0.20 -0.30 0.45 -1.65 0.50 -3 0.05 -1.35 0.30 -2.70 0.55 -3.05 0.25 -0.30 0.55 -1.65 0.70 -3.05 0.25 -2.75 0.70 -4.95 1.30 -6.45 0.20 -0.55 0.90 -3.15 1.50 -5.75 0.60 -2.60 1.30 -4.95 1.45 -5.25 0.20 -0.25 0.65 -1.50 1.05 -2.75 0.35 -1.25 0.85 -2.45 1.10 -2.70 0.20 -0.30 0.40 -0.80 0.40 -1.15 0 -0.35 0.40 -1.60 0.95 -2.80 0.50 -1.15 1.20 -2.90 1.55 -3.85 1.25 -3.55 6.55 -14.70 7.10 -14.90 0.20 -0.10 0.40 -0.40 0.40 -0.70 0 -0.25 0.45 -1.15 1.05 -1.95 l1 -1.45 -144.75 0 c-95.95 0 -144.85 0.15 -145.05 0.50 -0.15 0.30 -0.65 0.50 -1 0.50 -1.70 0 -9.55 4.15 -13.70 7.25 -1.80 1.35 -7.90 7.80 -10.35 11 -1.80 2.30 -7.20 11.55 -7.20 12.25 0 0.30 -0.20 0.50 -0.45 0.50 -0.25 0 -0.80 0.95 -1.30 2.15 -0.45 1.15 -1.15 2.90 -1.60 3.85 -1.35 3.20 -1.60 3.70 -2.65 7 -0.60 1.80 -1.30 3.70 -1.55 4.25 -0.25 0.55 -0.55 1.45 -0.60 2 -0.10 0.55 -0.35 1.35 -0.50 1.75 -0.55 1.25 -2.35 10.10 -2.35 11.55 0 0.75 -0.20 1.50 -0.40 1.65 -0.80 0.50 -0.70 20.20 0.10 26.30 0.95 6.90 3.65 17.35 5.80 22.25 4.70 10.75 8.85 17.20 15 23.25 2.35 2.35 4.80 4.60 5.45 5 0.65 0.40 1.65 1.10 2.25 1.55 2.05 1.55 9.15 4.95 12.85 6.15 l3.70 1.20 143.65 0.05 c103.75 0.05 143.60 -0.10 143.60 -0.50z m-338.50 -1.20 c0 -0.10 -0.85 -1.65 -1.90 -3.35 -3 -5 -8.25 -15.95 -9.85 -20.65 -0.45 -1.40 -1.10 -3.15 -1.45 -4 -0.60 -1.35 -0.90 -2.35 -2.35 -7.50 -0.25 -0.80 -0.75 -2.60 -1.20 -4 -2.15 -7.20 -4.20 -22.80 -4.25 -32.50 0 -7.15 0.90 -19.15 1.55 -20.35 0.25 -0.50 0.45 -1.65 0.45 -2.60 0 -1.55 0.90 -5.40 3.45 -14.80 1.20 -4.50 2.75 -8.85 4.25 -12.25 0.65 -1.35 1.55 -3.50 2.10 -4.75 2.20 -5.20 7.45 -15 9.75 -18.15 1.35 -1.85 2.45 -3.50 2.45 -3.60 0 -0.50 -87.95 -0.25 -88.25 0.25 -0.15 0.30 -1.40 0.50 -2.75 0.50 -1.35 0 -2.60 0.25 -2.75 0.50 -0.15 0.30 -1.05 0.50 -1.90 0.50 -4.10 0.05 -17.35 5.60 -24 10.10 -5.15 3.45 -12.30 9.60 -14.60 12.50 -0.25 0.35 -1.40 1.80 -2.55 3.15 -3.05 3.75 -4.95 6.70 -7.70 11.95 -2.60 4.95 -6.50 15.75 -6.50 17.95 0 0.70 -0.20 1.40 -0.45 1.55 -0.85 0.55 -2.70 17.05 -2.05 18.30 0.30 0.50 0.50 1.80 0.50 2.85 0 2.45 1 9.60 1.50 10.90 0.20 0.55 0.65 2.35 1 4 0.30 1.65 0.75 3.45 1 4 0.20 0.55 0.90 2.35 1.55 4 1.40 3.60 4.40 9.45 6.60 12.70 3.80 5.70 4.80 6.95 8.35 10.70 6.75 7.15 14.90 12.80 24 16.70 0.95 0.40 2.20 0.95 2.75 1.20 1.55 0.70 12.85 3.45 14.25 3.45 0.70 0 1.60 0.25 2 0.50 0.75 0.50 87 0.75 87 0.25z" style="fill: rgb(255, 255, 255);"/><path d="M320.50 633.65 c-4.80 -1.55 -6.90 -4.90 -6.80 -10.75 0.05 -3.45 0.20 -4 1.55 -5.70 0.85 -1 2.30 -2.25 3.25 -2.75 1.65 -0.90 5.50 -0.95 110.15 -0.95 98.60 0 108.60 0.05 110.15 0.80 2.20 1.05 4.65 3.60 5 5.20 0.15 0.70 0.50 1.75 0.80 2.35 0.60 1.20 0.05 3.95 -1.25 6.65 -0.95 1.90 -3.45 4.25 -5.30 4.90 -1.30 0.45 -28.45 0.60 -109.25 0.55 -59.15 0 -107.90 -0.15 -108.30 -0.30z" style="fill: rgb(255, 255, 255);"/><path d="M319.70 584.45 c-1.65 -0.45 -4.15 -2.95 -5.35 -5.25 -2.80 -5.60 0.25 -12.85 6.10 -14.65 1.40 -0.40 30.20 -0.55 108.90 -0.55 118.40 0 108.85 -0.30 112.40 3.25 0.95 1 1.85 2.40 2.05 3.15 0.15 0.75 0.45 1.80 0.60 2.35 1.05 3.45 -0.40 7.40 -3.80 10.15 l-2.25 1.85 -108.55 0.10 c-62.90 0.05 -109.20 -0.10 -110.10 -0.40z" style="fill: rgb(255, 255, 255);"/><path d="M472 461.10 c-4.40 -2 -6.50 -4.90 -6.90 -9.40 -0.20 -2.55 -0.05 -3.55 0.90 -5.45 1.35 -2.80 2.45 -3.90 5.30 -5.25 2.20 -1 2.45 -1 115.05 -1 l112.80 0 2.30 1.35 c2.70 1.55 3.30 2.20 4.55 5.05 2.20 4.80 0.40 10.55 -4.20 13.55 l-2.05 1.30 -113.50 0.10 c-62.40 0.05 -113.85 -0.05 -114.25 -0.25z" style="fill: rgb(255, 255, 255);"/><path d="M471.25 411.35 c-4.70 -2.80 -6.20 -5.25 -6.25 -10.10 0 -4.20 2 -7.65 5.35 -9.30 l2.40 -1.20 112 -0.10 c124.30 -0.15 115.45 -0.40 119 3.15 3.35 3.35 4.20 7.70 2.30 11.75 -1.50 3.05 -1.95 3.60 -4.60 5.10 l-2.30 1.35 -113.45 -0.05 c-86.70 0 -113.70 -0.15 -114.45 -0.60z" style="fill: rgb(255, 255, 255);"/></g><g fill="#17739f"/><g fill="#fba048"/></svg>