<?xml version="1.0" encoding="UTF-8" standalone="no"?><!DOCTYPE svg PUBLIC "-//W3C//DTD SVG 1.1//EN" "http://www.w3.org/Graphics/SVG/1.1/DTD/svg11.dtd"><svg width="100%" height="100%" viewBox="0 0 886 709" version="1.1" xmlns="http://www.w3.org/2000/svg" xmlns:xlink="http://www.w3.org/1999/xlink" xml:space="preserve" xmlns:serif="http://www.serif.com/" style="fill-rule:evenodd;clip-rule:evenodd;stroke-linejoin:round;stroke-miterlimit:2;"><g id="aabd4afe-642c-4327-a3f2-08ec89276309-5741" transform="matrix(1,0,0,1,-157.4,-95.8417)"><path d="M305.958,803.976C305.958,803.976 293.205,772.585 331.463,749.042L305.958,803.976Z" style="fill:rgb(240,240,240);fill-rule:nonzero;"/></g><g id="e302a207-98de-4798-aedc-79a63cff2427-5742" transform="matrix(1,0,0,1,-157.4,-95.8417)"><path d="M290.274,803.405C290.274,803.405 286.384,781.031 256.274,781.223L290.274,803.405Z" style="fill:rgb(240,240,240);fill-rule:nonzero;"/></g><g id="e16a8a0b-115e-4877-a9d6-27a72cf85b73-5743" transform="matrix(1,0,0,1,-157.4,-95.8417)"><path d="M732.958,803.976C732.958,803.976 720.205,772.585 758.463,749.042L732.958,803.976Z" style="fill:rgb(240,240,240);fill-rule:nonzero;"/></g><g id="b0706b48-08e0-43ea-ab25-36cfaee90c12-5744" transform="matrix(1,0,0,1,-157.4,-95.8417)"><path d="M717.274,803.405C717.274,803.405 713.384,781.031 683.274,781.223L717.274,803.405Z" style="fill:rgb(240,240,240);fill-rule:nonzero;"/></g><circle cx="565.054" cy="394.031" r="110.853" style="fill:rgb(240,240,240);"/><path d="M565.358,394.03L565.663,394.03L571.145,708.317L559.572,708.317L565.358,394.03Z" style="fill:rgb(240,240,240);fill-rule:nonzero;"/><circle cx="803.054" cy="479.085" r="80.853" style="fill:rgb(240,240,240);"/><path d="M803.276,479.085L803.498,479.085L807.496,708.317L799.055,708.317L803.276,479.085Z" style="fill:rgb(240,240,240);fill-rule:nonzero;"/><g transform="matrix(1,0,0,1,-157.4,-95.8417)"><path d="M512.728,575.748C518.085,575.133 522.175,570.547 522.175,565.154C522.175,564.119 522.024,563.088 521.727,562.096L552.462,539.929L534.053,532.937L507.689,555.06C503.505,556.62 500.714,560.639 500.714,565.105C500.714,570.987 505.554,575.826 511.436,575.826C511.868,575.826 512.299,575.8 512.728,575.748L512.728,575.748Z" style="fill:rgb(255,182,182);fill-rule:nonzero;"/></g><path d="M332.796,697.353L323.037,697.352L318.394,659.71L332.798,659.71L332.796,697.353Z" style="fill:rgb(255,182,182);fill-rule:nonzero;"/><g transform="matrix(1,0,0,1,-157.4,-95.8417)"><path d="M492.684,802.655L461.217,802.654L461.217,802.256C461.217,795.537 466.746,790.008 473.465,790.008L492.685,790.008L492.684,802.655Z" style="fill:rgb(47,46,65);fill-rule:nonzero;"/></g><path d="M258.253,697.353L248.494,697.352L243.852,659.71L258.255,659.71L258.253,697.353Z" style="fill:rgb(255,182,182);fill-rule:nonzero;"/><g transform="matrix(1,0,0,1,-157.4,-95.8417)"><path d="M418.142,802.655L386.674,802.654L386.674,802.256C386.675,795.537 392.203,790.008 398.922,790.008L418.142,790.008L418.142,802.655Z" style="fill:rgb(47,46,65);fill-rule:nonzero;"/></g><path d="M265.791,488.031L245.109,601.135L237.875,690.973L261.361,689.818L274.73,602.578L307.96,526.618L317.85,689.608L339.47,689.678L351.103,483.507L265.791,488.031Z" style="fill:rgb(47,46,65);fill-rule:nonzero;"/><g transform="matrix(1,0,0,1,-157.4,-95.8417)"><path d="M511.15,454.415L482.161,442.881L448.905,446.686L420.712,462.271C420.712,462.271 429.336,570.429 416.836,595.798C416.836,595.798 426.852,609.672 467.662,606.285C467.662,606.285 507.415,601.261 508.401,588.225C509.386,575.189 509.594,551.488 509.594,551.488L523.393,503.937L511.15,454.415Z" style="fill:rgb(39,120,189);fill-rule:nonzero;"/></g><g transform="matrix(1,0,0,1,-157.4,-95.8417)"><path d="M432.044,464.353L420.712,462.271C420.712,462.271 408.655,467.558 408.779,483.312C408.902,499.066 387.477,551.882 413.11,554.096C438.743,556.311 432.044,516.642 432.044,516.642L432.044,464.353Z" style="fill:rgb(39,120,189);fill-rule:nonzero;"/></g><g transform="matrix(1,0,0,1,-157.4,-95.8417)"><path d="M501.956,461.126L511.15,454.415C511.15,454.415 525.188,457.586 530.38,468.886C530.38,468.886 587.946,510.636 572.112,526.47C556.278,542.304 524.002,561.792 524.002,561.792L512.051,548.261L541.7,521.401L517.377,499.243L501.956,461.126Z" style="fill:rgb(39,120,189);fill-rule:nonzero;"/></g><g transform="matrix(1,0,0,1,-157.4,-95.8417)"><path d="M487.255,412.893C487.247,425.943 476.506,436.677 463.456,436.677C450.406,436.677 439.665,425.943 439.656,412.893L439.656,411.98C440.154,399.285 450.733,389.112 463.438,389.112C476.487,389.112 487.227,399.844 487.237,412.893L487.255,412.893Z" style="fill:rgb(255,182,182);fill-rule:nonzero;"/></g><g transform="matrix(1,0,0,1,-157.4,-95.8417)"><path d="M467.073,409.057C468.596,408.807 470.246,408.569 471.61,409.27C474.576,410.786 473.894,415.086 475.514,417.924C476.153,419.05 477.189,419.97 477.615,421.188C478.041,422.406 477.779,423.928 478.449,425.104C479.417,426.803 482.042,427.052 483.766,426.041C485.395,424.912 486.577,423.245 487.103,421.334C487.675,419.714 488.156,417.923 489.539,416.864C490.041,416.578 490.492,416.209 490.873,415.774C491.158,415.197 491.268,414.549 491.189,413.91C491.189,409.793 490.55,406.602 491.482,402.613C492.974,396.183 494.338,393.004 489.612,388.235C487.193,385.824 484.079,384.231 480.708,383.68C477.663,383.181 473.181,387.431 470.1,387.334C462.262,387.023 455.649,379.764 448.176,382.109C444.91,383.135 442.076,385.22 440.125,388.034C436.471,393.418 436.8,395.5 437.33,401.925C437.322,402.413 437.465,402.892 437.738,403.296C438.012,403.624 438.457,403.801 438.725,404.136C439.013,404.578 439.122,405.114 439.029,405.634C438.948,406.681 438.703,407.708 438.304,408.679C438.101,409.008 438.06,409.413 438.195,409.775C438.345,409.979 438.56,410.125 438.804,410.189C441.849,411.286 445.137,409.172 448.395,409.227C451.653,409.282 454.747,411.462 458.109,410.987C461.075,410.53 464.083,409.55 467.073,409.057Z" style="fill:rgb(47,46,65);fill-rule:nonzero;"/></g><g transform="matrix(1,0,0,1,-157.4,-95.8417)"><path d="M466.916,541.367C466.713,541.444 466.502,541.499 466.286,541.529L439.859,545.218C438.547,545.406 437.269,544.652 436.798,543.413L414.05,484.222C413.925,483.895 413.86,483.548 413.86,483.198C413.86,481.865 414.793,480.7 416.094,480.41L416.095,480.41L440.947,474.864C441.138,474.821 441.324,474.753 441.498,474.662L465.67,462.024C465.857,461.926 466.054,461.85 466.258,461.796L492.859,454.704C494.263,454.327 495.742,455.081 496.261,456.439L516.096,508.05C516.45,508.963 516.308,509.997 515.721,510.781L508.861,519.992C508.539,520.426 508.099,520.759 507.595,520.952L492.604,526.713C492.496,526.755 492.392,526.804 492.292,526.862L467.312,541.178C467.185,541.251 467.052,541.314 466.916,541.367Z" style="fill:white;fill-rule:nonzero;"/></g><g transform="matrix(1,0,0,1,-157.4,-95.8417)"><path d="M479.211,462.594L475.833,463.495L466.881,465.883L466.865,465.887L454.609,472.295L450.061,474.673L450.059,474.674L443.228,478.245L443.04,478.288L435.944,479.87L432.515,480.637L418.526,483.758L440.486,540.899L454.901,538.888L458.435,538.394L465.968,537.341L466.056,537.329L490.263,523.456L504.991,517.795L511.716,508.766L492.6,459.025L479.211,462.594Z" style="fill:rgb(228,228,228);fill-rule:nonzero;"/></g><g transform="matrix(0.933442,-0.358729,0.358729,0.933442,-299.993,101.296)"><rect x="420.954" y="481.098" width="78.016" height="3.476" style="fill:white;"/></g><g transform="matrix(0.933442,-0.358729,0.358729,0.933442,-303.596,103.508)"><rect x="425.111" y="491.915" width="78.016" height="3.476" style="fill:white;"/></g><g transform="matrix(0.933442,-0.358729,0.358729,0.933442,-310.876,107.974)"><rect x="433.508" y="513.765" width="78.016" height="3.476" style="fill:white;"/></g><path d="M321.811,366.753L343.613,423.483L340.368,424.73L318.433,367.654L321.811,366.753Z" style="fill:white;fill-rule:nonzero;"/><path d="M297.21,376.453L292.733,388.91L291.181,393.23L287.56,403.312L286.784,405.467L286.007,407.633L284.985,410.476L277.646,430.901L275.738,425.936L281.722,409.28L283.076,405.509L283.274,404.959L284.875,400.5L286.895,394.878L288.448,390.556L292.659,378.833L292.661,378.832L297.21,376.453Z" style="fill:white;fill-rule:nonzero;"/><path d="M278.545,384.028L301.035,442.552L297.501,443.046L275.115,384.795L278.545,384.028Z" style="fill:white;fill-rule:nonzero;"/><circle cx="273.731" cy="429.715" r="10.353" style="fill:rgb(255,182,182);"/><circle cx="701.225" cy="183.976" r="183.976" style="fill:rgb(228,228,228);"/><g transform="matrix(1,0,0,1,-157.4,-95.8417)"><path d="M994.466,156.936C1004.24,179.795 1009.28,204.4 1009.28,229.26C1009.28,330.194 926.221,413.25 825.287,413.25C772.832,413.25 722.802,390.818 687.909,351.651C716.806,419.256 783.57,463.326 857.093,463.326C958.027,463.326 1041.08,380.269 1041.08,279.334C1041.08,234.211 1024.48,190.627 994.466,156.936Z" style="fill-opacity:0.1;fill-rule:nonzero;"/></g><path d="M700.72,183.975L700.214,183.975L691.116,705.577L710.323,705.577L700.72,183.975Z" style="fill:rgb(228,228,228);fill-rule:nonzero;"/><g transform="matrix(1,0,0,1,-157.4,-95.8417)"><path d="M992.4,803.643L158.4,803.643C157.851,803.643 157.4,803.192 157.4,802.643C157.4,802.095 157.851,801.643 158.4,801.643L992.4,801.643C992.948,801.643 993.4,802.095 993.4,802.643C993.4,803.192 992.948,803.643 992.4,803.643Z" style="fill:rgb(202,202,202);fill-rule:nonzero;"/></g></svg>