<?xml version="1.0" encoding="UTF-8" standalone="no"?><!DOCTYPE svg PUBLIC "-//W3C//DTD SVG 1.1//EN" "http://www.w3.org/Graphics/SVG/1.1/DTD/svg11.dtd"><svg width="100%" height="100%" viewBox="0 0 363 439" version="1.1" xmlns="http://www.w3.org/2000/svg" xmlns:xlink="http://www.w3.org/1999/xlink" xml:space="preserve" xmlns:serif="http://www.serif.com/" style="fill-rule:evenodd;clip-rule:evenodd;stroke-linejoin:round;stroke-miterlimit:2;"><g id="Layer1"></g><g><path d="M336.48,37.094L50.52,37.094C40.03,37.094 31.5,45.624 31.5,56.114L31.5,252.074C31.5,262.564 40.03,271.094 50.52,271.094L336.48,271.094C346.97,271.094 355.5,262.564 355.5,252.074L355.5,56.114C355.5,45.624 346.97,37.094 336.48,37.094Z" style="fill:rgb(26,26,26);fill-rule:nonzero;"/><path d="M305.455,52.188L19.495,52.188C9.005,52.188 0.475,60.718 0.475,71.208L0.475,267.168C0.475,277.658 9.005,286.188 19.495,286.188L305.455,286.188C315.945,286.188 324.475,277.658 324.475,267.168L324.475,71.208C324.475,60.718 315.945,52.188 305.455,52.188ZM322.475,209.492C322.475,250.745 289.033,284.188 247.779,284.188L19.495,284.188C10.095,284.188 2.475,276.568 2.475,267.168L2.475,71.208C2.475,61.808 10.095,54.188 19.495,54.188L305.455,54.188C314.855,54.188 322.475,61.808 322.475,71.208L322.475,209.492Z" style="fill:rgb(63,61,86);fill-rule:nonzero;"/></g><g><path d="M41.322,243.721L39.629,242.655C40.729,240.907 41.864,239.212 43.002,237.618L44.63,238.78C43.514,240.342 42.402,242.004 41.322,243.721Z" style="fill:rgb(204,204,204);fill-rule:nonzero;"/><path d="M52.349,229.468L50.918,228.071C53.969,224.944 57.181,222.259 60.464,220.091L61.566,221.76C58.403,223.849 55.301,226.442 52.349,229.468ZM102.245,216.844C99.857,216.844 97.681,216.538 96.052,216.271L96.375,214.298C98.026,214.568 100.013,214.844 102.245,214.844C104.216,214.844 106.153,214.627 108.166,214.182L108.598,216.135C106.441,216.612 104.363,216.844 102.245,216.844ZM72.319,216.579L71.717,214.672C73.865,213.994 76.091,213.486 78.332,213.162C80.256,212.883 82.096,212.748 83.956,212.748L84.079,212.748L84.079,214.748L83.956,214.748C82.193,214.748 80.447,214.876 78.618,215.141C76.484,215.45 74.364,215.934 72.319,216.579ZM119.99,210.799L118.712,209.261C121.471,206.969 123.449,204.197 125.544,201.262L126.38,200.094L128.003,201.263L127.172,202.423C125,205.467 122.948,208.342 119.99,210.799ZM136.029,192.461L134.799,190.884C137.494,188.781 140.54,187.076 144.11,185.673C144.718,185.434 145.299,185.221 145.856,185.031L146.502,186.923C145.971,187.104 145.42,187.307 144.842,187.535C141.453,188.866 138.571,190.478 136.029,192.461ZM160.174,185.515C159.501,185.515 158.863,185.508 158.25,185.501L158.273,183.501C158.9,183.509 159.554,183.51 160.247,183.515C162.6,183.515 165.878,183.448 170.374,182.927L170.605,184.914C165.96,185.452 162.631,185.508 160.174,185.515ZM182.771,182.896L182.374,180.936C185.967,180.209 190.146,179.344 194.282,178.277L194.782,180.213C190.598,181.293 186.388,182.164 182.771,182.896ZM206.564,176.422L205.816,174.567C209.826,172.95 213.308,171.127 216.461,168.992L217.582,170.648C214.311,172.863 210.706,174.752 206.564,176.422ZM226.771,162.131L225.148,160.962C225.706,160.188 226.189,159.432 226.655,158.702C228.032,156.545 229.456,154.315 232.847,151.578L233.085,151.388L234.324,152.958L234.104,153.134C230.966,155.667 229.691,157.664 228.341,159.778C227.86,160.532 227.362,161.311 226.771,162.131ZM244.713,147.131L243.984,145.269C247.548,143.871 251.574,142.747 255.949,141.926L256.319,143.892C252.066,144.689 248.161,145.779 244.713,147.131Z" style="fill:rgb(77,77,77);fill-rule:nonzero;"/><path d="M268.543,142.423L268.418,140.427C270.362,140.305 272.393,140.225 274.457,140.188L274.493,142.188C272.459,142.224 270.457,142.303 268.543,142.423Z" style="fill:rgb(77,77,77);fill-rule:nonzero;"/></g><g><path d="M63.623,73.859L35.563,73.859C34.153,73.859 33.003,75.009 33.003,76.419C33.003,77.839 34.153,78.989 35.563,78.989L63.623,78.989C65.033,78.989 66.183,77.839 66.183,76.419C66.183,75.009 65.033,73.859 63.623,73.859Z" style="fill:rgb(77,77,77);fill-rule:nonzero;"/><path d="M110.623,73.859L82.563,73.859C81.153,73.859 80.003,75.009 80.003,76.419C80.003,77.839 81.153,78.989 82.563,78.989L110.623,78.989C112.033,78.989 113.183,77.839 113.183,76.419C113.183,75.009 112.033,73.859 110.623,73.859Z" style="fill:rgb(77,77,77);fill-rule:nonzero;"/><path d="M157.623,73.859L129.563,73.859C128.153,73.859 127.003,75.009 127.003,76.419C127.003,77.839 128.153,78.989 129.563,78.989L157.623,78.989C159.033,78.989 160.183,77.839 160.183,76.419C160.183,75.009 159.033,73.859 157.623,73.859Z" style="fill:rgb(77,77,77);fill-rule:nonzero;"/></g><rect x="32.975" y="242.188" width="255" height="2" style="fill:rgb(77,77,77);"/><path d="M274.505,96.188C256.355,96.658 242.815,101.998 234.235,112.038C231.065,115.758 229.775,118.688 228.415,121.788C227.065,124.848 225.685,127.998 222.475,132.108L222.475,128.708C224.465,125.788 225.535,123.348 226.585,120.978C228.005,117.738 229.355,114.678 232.715,110.748C241.675,100.248 255.715,94.678 274.445,94.188L274.505,96.188Z" style="fill:rgb(77,77,77);fill-rule:nonzero;"/><path d="M228.415,121.788C227.065,124.848 225.685,127.998 222.475,132.108C222.095,132.598 221.685,133.108 221.245,133.638C209.665,147.408 194.195,151.928 181.755,155.568C180.975,155.798 180.215,156.008 179.475,156.208C168.415,159.208 162.355,159.098 157.845,159.028C153.315,158.948 150.325,158.898 144.975,161.958C135.165,167.548 131.145,175.728 127.255,183.638C123.245,191.778 119.465,199.468 109.825,203.078C103.135,205.578 98.435,204.338 93.465,203.038C89.195,201.908 81.5,174.094 74.685,170.038C60.615,172.988 52.065,218.968 41.395,243.588L39.555,242.788C50.505,217.548 59.525,171.178 74.265,168.078C80.835,166.698 89.485,199.918 93.975,201.098C98.635,202.328 103.025,203.478 109.125,201.198C118.025,197.878 121.465,190.868 125.455,182.758C129.295,174.958 133.645,166.118 143.975,160.218C149.805,156.888 153.195,156.948 157.875,157.028C162.335,157.108 168.355,157.208 179.475,154.138C180.035,153.978 180.605,153.818 181.195,153.648C193.375,150.088 208.525,145.658 219.705,132.358C220.805,131.048 221.715,129.838 222.475,128.708C224.465,125.788 225.535,123.348 226.585,120.978C228.005,117.738 229.775,118.688 228.415,121.788Z" style="fill:rgb(39,120,189);fill-rule:nonzero;"/><g><path d="M121.776,350.568C120.984,347.812 119.629,345.461 118.015,343.783L112.151,317.054L99.37,320.185L106.694,346.962C106.213,349.228 106.309,351.933 107.101,354.689C108.909,360.986 113.66,365.168 117.713,364.031C121.765,362.893 123.584,356.865 121.776,350.568Z" style="fill:rgb(255,182,182);fill-rule:nonzero;"/><path d="M120.008,175.227C120.008,175.227 99.823,174.814 94.691,189.513C90.02,202.892 84.482,239.648 87.475,241.772L100.218,332.257L118.389,329.761L113.725,221.192L120.008,175.227Z" style="fill:rgb(39,120,189);fill-rule:nonzero;"/></g><path d="M213.475,343.188L209.895,438.188L162.395,438.188L160.475,395.618L152.035,438.188L101.125,438.188L107.475,365.008L114.035,349.618L118.475,339.188L213.475,343.188Z" style="fill:rgb(47,46,65);fill-rule:nonzero;"/><path d="M175.475,157.188L142.475,155.188L131.475,169.188L107.475,178.188L118.475,285.188L113.475,349.188C113.475,349.188 183.475,405.188 213.475,343.188L205.475,268.188L207.475,181.188L184.475,171.188L175.475,157.188Z" style="fill:rgb(39,120,189);fill-rule:nonzero;"/><g><path d="M239.006,132.849C239.364,136.316 238.909,139.577 237.862,142.191L243.359,175.002L227.669,177.161L223.782,143.645C222.223,141.3 221.112,138.201 220.754,134.734C219.936,126.814 223.358,119.971 228.399,119.451C233.439,118.93 238.188,124.929 239.006,132.849Z" style="fill:rgb(255,182,182);fill-rule:nonzero;"/><path d="M211.677,184.945C206.269,175.7 192.852,174.829 186.843,183.695C185.2,186.119 185.657,188.843 185.265,192.116C183.6,206.013 210.23,247.076 228.656,251.804C231.073,252.425 232.451,255.033 234.891,255.557C242.121,257.111 248.852,251.373 248.462,243.989L243.457,149.281L222.43,156.453L223.775,205.623L211.677,184.945Z" style="fill:rgb(39,120,189);fill-rule:nonzero;"/></g><g><circle cx="162.4" cy="123.532" r="29.068" style="fill:rgb(255,182,182);"/><path d="M189.475,102.188C189.225,102.248 193.302,98.275 193.475,98.188C197.475,96.188 193.365,115.738 190.475,115.188C183.365,113.838 180.295,111.158 177.535,117.848C176.765,119.708 176.285,121.808 174.785,123.138C172.725,124.948 169.305,124.798 167.625,126.958C166.275,128.698 166.665,131.258 167.665,133.218C168.665,135.188 170.185,136.858 171.095,138.868C172.115,141.128 167.765,148.318 166.105,152.358L166.105,152.368L166.095,152.392C165.654,153.451 164.606,150.399 163.5,150.094C162.175,149.729 160.224,152.856 158.115,152.288C158.105,152.288 158.095,152.278 158.085,152.278C156.075,151.718 153.835,151.118 151.615,150.518L151.605,150.518C145.355,148.818 143.775,151.258 143.475,151.188L139.595,147.128C138.264,146.158 138.414,143.029 137.475,142.188C136.707,141.501 134.793,143.089 134.229,142.428C131.463,139.188 130.826,135.947 129.195,129.548C127.705,123.698 124.615,106.188 130.965,105.398C136.955,104.648 132.575,96.308 138.605,96.618C138.245,95.098 138.915,93.468 140.005,92.348C141.085,91.218 142.525,90.518 143.975,89.918C151.125,86.998 149.935,84.488 157.475,86.188C158.225,85.138 169.115,85.838 170.475,86.188C170.575,86.208 167.105,87.038 172.475,86.188C172.275,87.418 175.675,87.958 175.475,89.188C176.225,88.178 184.285,93.978 184.475,95.188C184.725,96.698 182.445,95.928 183.965,96.158C184.865,96.298 186.405,98.128 186.255,99.038C186.905,98.158 187.555,97.288 188.215,96.408C188.335,96.418 188.445,96.438 188.565,96.458C191.605,97.038 188.12,106.976 188.245,103.878C188.475,98.188 192.505,101.518 189.475,102.188Z" style="fill:rgb(47,46,65);fill-rule:nonzero;"/></g><path d="M300.835,256.9C301.059,257.451 301.832,257.451 302.056,256.899C303.617,253.05 305.84,248.739 308.258,245.445C308.646,244.917 308.112,244.212 307.497,244.435L302.313,246.31L302.313,214.224L300.578,214.224L300.578,246.31L295.393,244.435C294.778,244.212 294.244,244.917 294.631,245.444C297.049,248.739 299.273,253.05 300.835,256.9Z" style="fill:rgb(63,61,86);fill-rule:nonzero;"/><path d="M334.826,289.937C334.658,290.508 335.264,290.989 335.782,290.696C339.399,288.653 343.82,286.659 347.763,285.583C348.394,285.411 348.414,284.527 347.794,284.319L342.569,282.564L362.524,257.437L361.165,256.358L341.21,281.485L338.316,276.791C337.973,276.234 337.116,276.454 337.092,277.108C336.936,281.192 335.996,285.951 334.826,289.937Z" style="fill:rgb(63,61,86);fill-rule:nonzero;"/><g><path d="M318.593,311.349L284.871,311.349C282.778,311.349 281.074,309.646 281.074,307.552C276.616,294.52 276.704,281.751 281.074,269.229C281.074,267.135 282.778,265.432 284.871,265.432L318.593,265.432C320.686,265.432 322.39,267.135 322.39,269.229L322.39,307.552C322.39,309.646 320.686,311.349 318.593,311.349Z" style="fill:rgb(51,51,51);fill-rule:nonzero;"/><path d="M292.096,266.563C286.634,266.563 282.206,270.992 282.206,276.454L282.206,306.739C282.206,308.66 283.763,310.218 285.684,310.218L304.332,310.218C313.68,310.218 321.258,302.64 321.258,293.292L321.258,270.042C321.258,268.121 319.701,266.563 317.78,266.563L292.096,266.563Z" style="fill:rgb(26,26,26);fill-rule:nonzero;"/><g><path d="M309.585,277.7L293.797,277.7C293.399,277.7 293.076,277.376 293.076,276.978C293.076,276.58 293.399,276.257 293.797,276.257L309.585,276.257C309.983,276.257 310.307,276.58 310.307,276.978C310.307,277.376 309.983,277.7 309.585,277.7Z" style="fill:rgb(230,230,230);fill-rule:nonzero;"/><path d="M309.585,293.093L293.797,293.093C293.399,293.093 293.076,292.769 293.076,292.371C293.076,291.973 293.399,291.649 293.797,291.649L309.585,291.649C309.983,291.649 310.307,291.973 310.307,292.371C310.307,292.769 309.983,293.093 309.585,293.093Z" style="fill:rgb(230,230,230);fill-rule:nonzero;"/><path d="M318.057,285.402L285.325,285.402C284.927,285.402 284.604,285.078 284.604,284.68C284.604,284.282 284.927,283.958 285.325,283.958L318.057,283.958C318.455,283.958 318.779,284.282 318.779,284.68C318.779,285.078 318.455,285.402 318.057,285.402Z" style="fill:rgb(230,230,230);fill-rule:nonzero;"/></g><path d="M318.443,299.351L304.786,299.351C304.387,299.351 304.064,299.028 304.064,298.63C304.064,298.232 304.387,297.908 304.786,297.908L318.443,297.908C318.841,297.908 319.165,298.232 319.165,298.63C319.165,299.028 318.841,299.351 318.443,299.351Z" style="fill:rgb(230,230,230);fill-rule:nonzero;"/></g><g><ellipse cx="12.463" cy="12.522" rx="12.463" ry="12.201" style="fill:rgb(39,120,189);"/><path d="M112.376,8.348L45.291,8.348C42.99,8.348 41.117,6.475 41.117,4.174C41.117,1.872 42.99,0 45.291,0L112.376,0C114.678,0 116.55,1.872 116.55,4.174C116.55,6.475 114.678,8.348 112.376,8.348Z" style="fill:rgb(26,26,26);fill-rule:nonzero;"/><path d="M164.729,22.475L45.291,22.475C42.99,22.475 41.117,20.602 41.117,18.301C41.117,16 42.99,14.127 45.291,14.127L164.729,14.127C167.031,14.127 168.903,16 168.903,18.301C168.903,20.602 167.031,22.475 164.729,22.475Z" style="fill:rgb(26,26,26);fill-rule:nonzero;"/></g></svg>