<?xml version="1.0" encoding="UTF-8" standalone="no"?><!DOCTYPE svg PUBLIC "-//W3C//DTD SVG 1.1//EN" "http://www.w3.org/Graphics/SVG/1.1/DTD/svg11.dtd"><svg width="100%" height="100%" viewBox="0 0 816 575" version="1.1" xmlns="http://www.w3.org/2000/svg" xmlns:xlink="http://www.w3.org/1999/xlink" xml:space="preserve" xmlns:serif="http://www.serif.com/" style="fill-rule:evenodd;clip-rule:evenodd;stroke-linejoin:round;stroke-miterlimit:2;"><circle cx="406.794" cy="238.5" r="26" style="fill:rgb(39,120,189);"/><g transform="matrix(1,0,0,1,-192.103,-162.746)"><path d="M314.897,196.936L314.897,444.556C314.912,456.997 325.145,467.231 337.587,467.246L985.207,467.246C997.649,467.231 1007.88,456.997 1007.9,444.556L1007.9,196.936C1007.88,184.494 997.649,174.261 985.207,174.246L337.587,174.246C325.145,174.261 314.912,184.494 314.897,196.936ZM316.897,196.936C316.897,185.586 326.237,176.246 337.587,176.246L850.221,176.246C935.622,176.246 1005.9,246.52 1005.9,331.921L1005.9,444.556C1005.9,455.906 996.557,465.246 985.207,465.246L337.587,465.246C326.237,465.246 316.897,455.906 316.897,444.556L316.897,196.936Z" style="fill:rgb(63,61,86);fill-rule:nonzero;"/></g><path d="M130.261,555.88L144.768,555.879L151.669,499.923L130.258,499.925L130.261,555.88Z" style="fill:rgb(255,182,182);fill-rule:nonzero;"/><g transform="matrix(1,0,0,1,-192.103,-162.746)"><path d="M321.853,733.76L366.464,733.758L366.464,733.194C366.463,723.669 358.625,715.831 349.1,715.83L349.099,715.83L340.95,709.648L325.747,715.831L321.853,715.831L321.853,733.76Z" style="fill:rgb(47,46,65);fill-rule:nonzero;"/></g><path d="M66.979,555.88L81.486,555.879L88.387,499.923L66.976,499.925L66.979,555.88Z" style="fill:rgb(255,182,182);fill-rule:nonzero;"/><g transform="matrix(1,0,0,1,-192.103,-162.746)"><path d="M258.572,733.76L303.182,733.758L303.182,733.194C303.182,723.669 295.344,715.831 285.819,715.83L285.818,715.83L277.669,709.648L262.465,715.831L258.571,715.831L258.572,733.76Z" style="fill:rgb(47,46,65);fill-rule:nonzero;"/></g><g transform="matrix(1,0,0,1,-192.103,-162.746)"><path d="M358.485,413.739C358.485,413.739 372.442,456.607 369.866,462.249C367.29,467.892 362.894,463.496 367.29,467.892C371.685,472.287 375.522,467.615 371.406,475.079C367.29,482.543 361.054,543.993 358.311,546.967C355.568,549.942 351.797,550.022 355.148,552.912C358.499,555.803 362.894,549.942 358.499,555.803C354.103,561.664 342.439,696.865 342.439,696.865L319.654,696.865C319.654,696.865 313.979,690.323 317.191,686.066C320.404,681.809 316.909,680.168 317.191,677.325C317.473,674.483 316.405,668.354 316.207,665.558C316.008,662.761 312.157,596.141 321.409,557.657L304.539,484.38L284.104,572.945C284.104,572.945 293.504,647.233 284.104,671.114C284.104,671.114 291.683,677.425 288.322,681.082C284.961,684.739 282.03,681.809 284.961,684.739C287.891,687.67 280.565,697.926 280.565,697.926L255.657,696.461L241.559,557.657C241.559,557.657 239.182,543.181 241.559,540.701C243.936,538.221 243.936,547.012 243.936,538.221L243.936,526.499C243.936,526.499 245.312,454.405 245.496,450.159C245.679,445.914 263.261,415.145 263.261,415.145L358.485,413.739Z" style="fill:rgb(47,46,65);fill-rule:nonzero;"/></g><g transform="matrix(1,0,0,1,-192.103,-162.746)"><path d="M358.277,265.676L358.277,350.206C355.548,358.391 354.14,366.958 354.107,375.586C354.197,389.956 357.357,406.516 357.347,413.756C357.389,414.716 357.284,415.677 357.037,416.606C343.047,457.156 269.017,420.306 262.287,416.856C261.967,416.696 261.797,416.606 261.797,416.606L263.257,371.186L263.007,358.126L261.277,268.536L262.827,267.296L276.407,256.466L277.737,255.406L281.817,261.356L318.187,258.856L332.067,255.016L336.397,256.776L355.917,264.716L358.277,265.676Z" style="fill:rgb(39,120,189);fill-rule:nonzero;"/></g><g transform="matrix(1,0,0,1,-192.103,-162.746)"><path d="M485.032,332.101L459.544,323.675L452.699,337.563L479.963,345.513C481.607,348.122 484.482,349.709 487.566,349.709C492.496,349.709 496.552,345.652 496.552,340.723C496.552,335.793 492.496,331.736 487.566,331.736C486.708,331.736 485.855,331.859 485.032,332.101L485.032,332.101Z" style="fill:rgb(255,182,182);fill-rule:nonzero;"/></g><g transform="matrix(1,0,0,1,-192.103,-162.746)"><path d="M333.588,257.454L333.482,257.875C331.491,265.843 328.948,288.601 334.397,294.746C341.394,302.647 397.914,326.767 409.142,324.802C417.85,323.278 416.057,323.789 420.224,328.124C424.391,332.459 417.475,333.471 426.769,334.23C436.063,334.988 436.249,331.429 438.239,335.376C440.23,339.323 438.459,341.702 444.784,341.482C451.109,341.262 452.695,342.443 454.871,342.831C457.047,343.219 470.71,349.695 470.71,349.695C470.71,349.695 476.191,334.058 483.09,328.104C483.09,328.104 467.268,326.182 466.07,322.825C464.872,319.469 465.85,316.5 461.701,317.107C457.552,317.715 455.393,322.269 455.966,316.534C456.539,310.799 426.649,299.634 426.649,299.634C408.61,281.874 371.549,269.536 333.588,257.454Z" style="fill:rgb(39,120,189);fill-rule:nonzero;"/></g><g transform="matrix(1,0,0,1,-192.103,-162.746)"><path d="M252.723,433.997L251.567,407.177L236.154,405.7L238.386,434.012C237.21,435.57 236.574,437.47 236.574,439.423C236.574,444.352 240.63,448.409 245.56,448.409C250.49,448.409 254.547,444.352 254.547,439.423C254.547,437.464 253.906,435.558 252.723,433.997Z" style="fill:rgb(255,182,182);fill-rule:nonzero;"/></g><g transform="matrix(1,0,0,1,-192.103,-162.746)"><path d="M268.835,265.926L268.403,265.977C260.254,266.938 253.087,271.869 249.276,279.136C244.369,288.479 228.844,351.763 232.645,360.448C236.19,368.547 236.044,366.556 233.467,371.988C230.891,377.421 227.493,371.313 230.078,380.273C232.664,389.232 236.058,388.144 233.073,391.404C230.088,394.665 227.236,393.852 229.684,399.689C232.132,405.525 231.59,407.426 231.998,409.599C232.407,411.771 231.195,426.842 231.195,426.842C231.195,426.842 247.759,426.424 255.773,430.764C255.773,430.764 251.961,415.288 254.675,412.978C257.389,410.668 260.512,410.53 258.473,406.866C256.434,403.201 251.41,402.797 256.975,401.3C262.541,399.803 262.384,367.896 262.384,367.896L268.835,265.926Z" style="fill:rgb(39,120,189);fill-rule:nonzero;"/></g><g transform="matrix(1,0,0,1,-192.103,-162.746)"><path d="M308.547,231.746C307.897,231.896 307.247,232.026 306.597,232.126C304.611,232.452 302.595,232.556 300.587,232.436C285.621,231.632 273.742,219.098 273.742,204.111C273.742,188.55 286.547,175.745 302.108,175.745C314.992,175.745 326.335,184.523 329.567,196.996C329.627,197.226 329.687,197.446 329.737,197.676C333.266,212.833 323.702,228.21 308.547,231.746Z" style="fill:rgb(255,182,182);fill-rule:nonzero;"/></g><g transform="matrix(1,0,0,1,-192.103,-162.746)"><path d="M282.365,228.398C278.419,225.31 278.036,219.425 274.669,215.714C269.04,209.511 266.395,202.837 269.344,195.487C271.952,188.986 271.398,180.995 277.015,176.81C274.256,175.811 273.607,173.737 276.041,173.699C277.683,173.673 283.803,176.811 280.858,172.902C277.913,168.994 283.487,170.536 283.119,168.936C282.75,167.337 280.386,166.45 279.343,167.719C282.672,163.818 289.942,164.65 292.304,169.201C295.622,164.228 299.144,160.807 304.221,163.962C309.208,167.062 309.143,170.893 314.505,169.972C317.026,169.539 317.265,174.302 318.987,176.193C320.709,178.085 323.226,179.548 325.74,179.073C328.253,178.598 330.175,175.466 328.767,173.331L334.69,186.845L337.078,183.917C340.871,186.389 339.625,192.84 335.807,195.274C331.988,197.707 324.701,192.083 322.628,196.109C319.362,202.455 311.699,199.25 306.436,194.765C300.054,189.326 292.351,205.864 295.425,213.664C292.236,210.532 286.335,213.131 284.682,217.285C283.03,221.439 284.242,226.119 285.467,230.418L282.365,228.398Z" style="fill:rgb(47,46,65);fill-rule:nonzero;"/></g><g transform="matrix(1,0,0,1,-192.103,-162.746)"><path d="M676.522,321.773L646.505,321.773C644.894,321.771 643.569,320.446 643.567,318.835L643.567,289.184C643.569,287.573 644.894,286.248 646.505,286.246L676.522,286.246C678.133,286.248 679.458,287.573 679.46,289.184L679.46,318.835C679.458,320.446 678.133,321.771 676.522,321.773Z" style="fill:rgb(242,242,242);fill-rule:nonzero;"/></g><g transform="matrix(1,0,0,1,-192.103,-162.746)"><path d="M681.52,324.272L651.502,324.272C649.891,324.27 648.566,322.945 648.564,321.334L648.564,291.682C648.566,290.071 649.891,288.746 651.502,288.745L681.52,288.745C683.131,288.746 684.456,290.071 684.458,291.682L684.458,321.334C684.456,322.945 683.131,324.27 681.52,324.272Z" style="fill:rgb(242,242,242);fill-rule:nonzero;"/></g><g transform="matrix(1,0,0,1,-192.103,-162.746)"><path d="M647.134,287.121C645.657,287.121 644.442,288.336 644.442,289.813L644.442,318.206C644.442,319.683 645.657,320.898 647.134,320.898L665.489,320.898C672.673,320.898 678.585,314.986 678.585,307.802L678.585,289.813C678.585,288.336 677.37,287.121 675.893,287.121L647.134,287.121Z" style="fill:white;fill-rule:nonzero;"/></g><g transform="matrix(1,0,0,1,-192.103,-162.746)"><path d="M669.553,295.738L653.411,295.738C653.104,295.738 652.852,295.486 652.852,295.179C652.852,294.873 653.104,294.621 653.411,294.621L669.553,294.621C669.859,294.621 670.112,294.873 670.112,295.179C670.112,295.486 669.859,295.738 669.553,295.738Z" style="fill:rgb(242,242,242);fill-rule:nonzero;"/></g><g transform="matrix(1,0,0,1,-192.103,-162.746)"><path d="M669.553,307.648L653.411,307.648C653.104,307.648 652.852,307.395 652.852,307.089C652.852,306.783 653.104,306.531 653.411,306.531L669.553,306.531C669.859,306.531 670.112,306.783 670.112,307.089C670.112,307.395 669.859,307.648 669.553,307.648Z" style="fill:rgb(242,242,242);fill-rule:nonzero;"/></g><g transform="matrix(1,0,0,1,-192.103,-162.746)"><path d="M676.108,301.697L646.856,301.697C646.55,301.697 646.297,301.445 646.297,301.138C646.297,300.832 646.55,300.58 646.856,300.58L676.108,300.58C676.414,300.58 676.666,300.832 676.666,301.138C676.666,301.445 676.414,301.697 676.108,301.697Z" style="fill:rgb(242,242,242);fill-rule:nonzero;"/></g><g transform="matrix(1,0,0,1,-192.103,-162.746)"><path d="M676.407,312.49L665.839,312.49C665.533,312.49 665.281,312.238 665.281,311.932C665.281,311.625 665.533,311.373 665.839,311.373L676.407,311.373C676.713,311.373 676.965,311.625 676.965,311.932C676.965,312.238 676.713,312.49 676.407,312.49Z" style="fill:rgb(242,242,242);fill-rule:nonzero;"/></g><g transform="matrix(1,0,0,1,-192.103,-162.746)"><path d="M585.993,340.334L585.603,340.142C562.825,328.881 538.183,328.891 510.271,340.173L509.522,338.318C537.833,326.876 562.888,326.822 586.098,338.157C618.761,325.727 639.759,304.66 648.514,275.533L650.43,276.109C641.449,305.983 619.906,327.54 586.399,340.181L585.993,340.334Z" style="fill:rgb(242,242,242);fill-rule:nonzero;"/></g><g transform="matrix(1,0,0,1,-192.103,-162.746)"><path d="M681.014,340.334L680.622,340.151C658.235,329.648 633.579,329.658 605.245,340.183L604.548,338.308C633.243,327.648 658.283,327.597 681.078,338.157C717.649,323.544 738.645,302.514 743.487,275.644L745.456,275.998C740.464,303.692 718.918,325.284 681.416,340.175L681.014,340.334Z" style="fill:rgb(242,242,242);fill-rule:nonzero;"/></g><g transform="matrix(1,0,0,1,-192.103,-162.746)"><path d="M755.899,339.271L755.652,339.164C737.206,331.234 713.207,331.251 680.131,339.218L679.662,337.273C713.033,329.236 737.362,329.217 756.193,337.221C793.572,332.65 813.949,312.197 818.479,274.701L820.465,274.941C815.797,313.575 794.765,334.607 756.166,339.238L755.899,339.271Z" style="fill:rgb(242,242,242);fill-rule:nonzero;"/></g><circle cx="465.794" cy="109.5" r="8" style="fill:rgb(39,120,189);"/><circle cx="555.794" cy="109.5" r="8" style="fill:rgb(39,120,189);"/><circle cx="627.794" cy="108.5" r="8" style="fill:rgb(39,120,189);"/><g transform="matrix(1,0,0,1,-192.103,-162.746)"><path d="M596.889,401.272L512.797,401.272C508.284,401.267 504.572,397.555 504.567,393.042L504.567,309.976C504.572,305.463 508.284,301.751 512.797,301.746L596.889,301.746C601.401,301.751 605.113,305.463 605.119,309.976L605.119,393.042C605.113,397.555 601.401,401.267 596.889,401.272Z" style="fill:rgb(230,230,230);fill-rule:nonzero;"/></g><g transform="matrix(1,0,0,1,-192.103,-162.746)"><path d="M582.889,394.272L498.797,394.272C494.284,394.267 490.572,390.555 490.567,386.042L490.567,302.976C490.572,298.463 494.284,294.751 498.797,294.746L582.889,294.746C587.401,294.751 591.113,298.463 591.119,302.976L591.119,386.042C591.113,390.555 587.401,394.267 582.889,394.272Z" style="fill:rgb(230,230,230);fill-rule:nonzero;"/></g><g transform="matrix(1,0,0,1,-192.103,-162.746)"><path d="M514.457,297.198C502.696,297.198 493.019,306.875 493.019,318.636L493.019,384.279C493.019,388.416 496.423,391.819 500.559,391.819C500.559,391.819 551.979,391.819 551.979,391.819C572.105,391.819 588.666,375.258 588.666,355.132L588.666,304.738C588.666,300.602 585.262,297.198 581.126,297.198L514.457,297.198Z" style="fill:white;fill-rule:nonzero;"/></g><g transform="matrix(1,0,0,1,-192.103,-162.746)"><path d="M563.365,321.337L518.144,321.337C517.286,321.337 516.58,320.631 516.58,319.773C516.58,318.914 517.286,318.208 518.144,318.208L563.365,318.208C564.223,318.208 564.929,318.914 564.929,319.773C564.929,320.631 564.223,321.337 563.365,321.337Z" style="fill:rgb(230,230,230);fill-rule:nonzero;"/></g><g transform="matrix(1,0,0,1,-192.103,-162.746)"><path d="M563.365,354.701L518.144,354.701C518.143,354.701 518.142,354.701 518.14,354.701C517.282,354.701 516.576,353.995 516.576,353.136C516.576,352.278 517.282,351.572 518.14,351.572C518.142,351.572 518.143,351.572 518.144,351.572L563.365,351.572C564.222,351.574 564.925,352.28 564.925,353.136C564.925,353.993 564.222,354.699 563.365,354.701Z" style="fill:rgb(230,230,230);fill-rule:nonzero;"/></g><g transform="matrix(1,0,0,1,-192.103,-162.746)"><path d="M581.728,338.03L499.781,338.03C498.923,338.03 498.216,337.324 498.216,336.465C498.216,335.607 498.923,334.901 499.781,334.901L581.728,334.901C582.586,334.901 583.292,335.607 583.292,336.465C583.292,337.324 582.586,338.03 581.728,338.03L581.728,338.03Z" style="fill:rgb(230,230,230);fill-rule:nonzero;"/></g><g transform="matrix(1,0,0,1,-192.103,-162.746)"><path d="M582.565,368.267L552.961,368.267C552.103,368.267 551.396,367.56 551.396,366.702C551.396,365.844 552.103,365.137 552.961,365.137L582.565,365.137C583.423,365.137 584.129,365.844 584.129,366.702C584.129,367.56 583.423,368.266 582.565,368.267Z" style="fill:rgb(230,230,230);fill-rule:nonzero;"/></g><g transform="matrix(1,0,0,1,-192.103,-162.746)"><path d="M782.522,317.773L752.505,317.773C750.894,317.771 749.569,316.446 749.567,314.835L749.567,285.184C749.569,283.573 750.894,282.248 752.505,282.246L782.522,282.246C784.133,282.248 785.458,283.573 785.46,285.184L785.46,314.835C785.458,316.446 784.133,317.771 782.522,317.773Z" style="fill:rgb(242,242,242);fill-rule:nonzero;"/></g><g transform="matrix(1,0,0,1,-192.103,-162.746)"><path d="M787.52,320.272L757.502,320.272C755.891,320.27 754.566,318.945 754.564,317.334L754.564,287.682C754.566,286.071 755.891,284.746 757.502,284.745L787.52,284.745C789.131,284.746 790.456,286.071 790.458,287.682L790.458,317.334C790.456,318.945 789.131,320.27 787.52,320.272Z" style="fill:rgb(242,242,242);fill-rule:nonzero;"/></g><g transform="matrix(1,0,0,1,-192.103,-162.746)"><path d="M753.134,283.121C751.657,283.121 750.442,284.336 750.442,285.813L750.442,314.206C750.442,315.683 751.657,316.898 753.134,316.898L771.489,316.898C778.673,316.898 784.585,310.986 784.585,303.802L784.585,285.813C784.585,284.336 783.37,283.121 781.893,283.121L753.134,283.121Z" style="fill:white;fill-rule:nonzero;"/></g><g transform="matrix(1,0,0,1,-192.103,-162.746)"><path d="M775.553,291.738L759.411,291.738C759.104,291.738 758.852,291.486 758.852,291.179C758.852,290.873 759.104,290.621 759.411,290.621L775.553,290.621C775.859,290.621 776.112,290.873 776.112,291.179C776.112,291.486 775.859,291.738 775.553,291.738Z" style="fill:rgb(242,242,242);fill-rule:nonzero;"/></g><g transform="matrix(1,0,0,1,-192.103,-162.746)"><path d="M775.553,303.648L759.411,303.648C759.104,303.648 758.852,303.395 758.852,303.089C758.852,302.783 759.104,302.531 759.411,302.531L775.553,302.531C775.859,302.531 776.112,302.783 776.112,303.089C776.112,303.395 775.859,303.648 775.553,303.648Z" style="fill:rgb(242,242,242);fill-rule:nonzero;"/></g><g transform="matrix(1,0,0,1,-192.103,-162.746)"><path d="M782.108,297.697L752.856,297.697C752.55,297.697 752.297,297.445 752.297,297.138C752.297,296.832 752.55,296.58 752.856,296.58L782.108,296.58C782.414,296.58 782.666,296.832 782.666,297.138C782.666,297.445 782.414,297.697 782.108,297.697Z" style="fill:rgb(242,242,242);fill-rule:nonzero;"/></g><g transform="matrix(1,0,0,1,-192.103,-162.746)"><path d="M782.407,308.49L771.839,308.49C771.533,308.49 771.281,308.238 771.281,307.932C771.281,307.625 771.533,307.373 771.839,307.373L782.407,307.373C782.713,307.373 782.965,307.625 782.965,307.932C782.965,308.238 782.713,308.49 782.407,308.49Z" style="fill:rgb(242,242,242);fill-rule:nonzero;"/></g><g transform="matrix(1,0,0,1,-192.103,-162.746)"><path d="M438.413,719.921C438.379,719.923 438.344,719.924 438.309,719.924C437.064,719.924 436.04,718.899 436.04,717.654C436.04,717.022 436.304,716.417 436.769,715.988L436.924,715.37C436.904,715.32 436.883,715.271 436.862,715.221C435.91,712.972 433.693,711.503 431.25,711.503C428.791,711.503 426.563,712.992 425.621,715.263C423.782,719.691 421.442,724.127 420.865,728.809C420.611,730.879 420.718,732.977 421.182,735.01C416.863,725.59 414.621,715.351 414.606,704.989C414.606,702.388 414.75,699.79 415.039,697.206C415.278,695.087 415.61,692.984 416.034,690.895C418.348,679.565 423.318,668.943 430.534,659.906C434.026,658 436.851,655.069 438.627,651.509C439.27,650.23 439.725,648.863 439.977,647.453C439.583,647.505 438.491,641.504 438.789,641.136C438.239,640.303 437.257,639.889 436.657,639.076C433.675,635.033 429.566,635.739 427.421,641.233C422.839,643.546 422.794,647.381 425.606,651.07C427.395,653.417 427.64,656.592 429.21,659.105C429.048,659.312 428.881,659.512 428.719,659.719C425.767,663.514 423.195,667.59 421.038,671.887C421.563,667.073 420.936,662.203 419.212,657.678C417.463,653.46 414.187,649.908 411.301,646.263C410.112,644.737 408.283,643.843 406.348,643.843C403.196,643.843 400.507,646.217 400.117,649.346C400.111,649.4 400.106,649.453 400.1,649.507C400.528,649.749 400.948,650.006 401.359,650.277C402.213,650.848 402.727,651.809 402.727,652.836C402.727,654.349 401.612,655.648 400.117,655.879L400.055,655.888C400.207,657.433 400.477,658.964 400.862,660.468C397.16,674.784 405.152,679.998 416.563,680.232C416.815,680.361 417.061,680.49 417.313,680.613C415.146,686.754 413.787,693.15 413.27,699.641C412.977,703.47 412.994,707.317 413.321,711.144L413.302,711.008C412.475,706.754 410.204,702.913 406.875,700.138C401.93,696.076 394.942,694.579 389.607,691.314C389.038,690.948 388.375,690.754 387.698,690.754C385.76,690.754 384.165,692.349 384.165,694.287C384.165,694.442 384.175,694.597 384.196,694.751L384.218,694.894C385.013,695.217 385.787,695.591 386.536,696.011C386.965,696.253 387.384,696.509 387.795,696.781C388.649,697.351 389.163,698.313 389.163,699.34C389.163,700.853 388.049,702.152 386.554,702.383L386.491,702.392C386.446,702.399 386.407,702.405 386.362,702.412C387.721,705.656 389.628,708.643 392,711.241C394.315,723.738 404.256,724.924 414.891,721.284L414.897,721.284C416.064,726.355 417.754,731.29 419.942,736.011L437.962,736.011C438.026,735.81 438.084,735.604 438.143,735.404C436.475,735.508 434.8,735.409 433.156,735.107C434.493,733.466 435.83,731.812 437.167,730.172C437.197,730.141 437.225,730.109 437.251,730.075C437.93,729.235 438.614,728.402 439.292,727.563L439.293,727.562C439.329,724.988 439.034,722.42 438.414,719.922L438.413,719.921Z" style="fill:rgb(242,242,242);fill-rule:nonzero;"/></g><g transform="matrix(1,0,0,1,-192.103,-162.746)"><path d="M192.103,736.061C192.103,736.062 192.103,736.067 192.103,736.068C192.103,736.719 192.639,737.254 193.29,737.254C193.291,737.254 193.292,737.254 193.293,737.254L446.583,737.254C447.236,737.254 447.773,736.717 447.773,736.064C447.773,735.411 447.236,734.874 446.583,734.874L193.293,734.874C193.292,734.874 193.291,734.874 193.29,734.874C192.639,734.874 192.103,735.41 192.103,736.061Z" style="fill:rgb(204,204,204);fill-rule:nonzero;"/></g><g transform="matrix(1,0,0,1,-192.103,-162.746)"><path d="M300.587,232.436L306.597,232.126C304.611,232.452 302.595,232.556 300.587,232.436Z" style="fill:rgb(242,242,242);fill-rule:nonzero;"/></g><path d="M144.294,94.03L143.304,95.29L140.644,98.67L117.674,127.88L84.304,93.72L85.634,92.66L92.714,77.61L129.084,75.11L139.964,92.27L144.294,94.03Z" style="fill:rgb(63,61,86);fill-rule:nonzero;"/></svg>