<?xml version="1.0" encoding="UTF-8" standalone="no"?><!DOCTYPE svg PUBLIC "-//W3C//DTD SVG 1.1//EN" "http://www.w3.org/Graphics/SVG/1.1/DTD/svg11.dtd"><svg width="100%" height="100%" viewBox="0 0 826 541" version="1.1" xmlns="http://www.w3.org/2000/svg" xmlns:xlink="http://www.w3.org/1999/xlink" xml:space="preserve" xmlns:serif="http://www.serif.com/" style="fill-rule:evenodd;clip-rule:evenodd;stroke-linejoin:round;stroke-miterlimit:2;"><g transform="matrix(1,0,0,1,-187,-179.5)"><path d="M990.637,719.305L991.862,719.281C991.388,705.662 989.935,692.094 987.514,678.683C982.217,649.97 973.409,631.113 961.336,622.636L960.632,623.638C988.837,643.441 990.623,718.548 990.637,719.305Z" style="fill:rgb(38,38,38);fill-rule:nonzero;"/></g><g transform="matrix(1,0,0,1,-187,-179.5)"><path d="M975.326,719.012L976.551,718.988C976.524,717.632 975.759,685.662 963.173,676.825L962.47,677.828C974.548,686.308 975.32,718.686 975.326,719.012Z" style="fill:rgb(38,38,38);fill-rule:nonzero;"/></g><circle cx="766.664" cy="438.125" r="6.125" style="fill:rgb(38,38,38);"/><circle cx="769.697" cy="490.796" r="6.125" style="fill:rgb(38,38,38);"/><g transform="matrix(1,0,0,1,-187,-179.5)"><path d="M978.181,627.421C977.567,632.145 978.205,636.948 980.03,641.348C986.53,634.083 988.167,623.629 984.198,614.724C981.115,618.356 979.04,622.735 978.181,627.421Z" style="fill:rgb(38,38,38);fill-rule:nonzero;"/></g><g transform="matrix(1,0,0,1,-187,-179.5)"><path d="M958.161,645.276C962.706,646.704 967.547,646.913 972.198,645.882C966.176,638.215 956.167,634.782 946.707,637.139C949.747,640.807 953.697,643.614 958.161,645.276Z" style="fill:rgb(38,38,38);fill-rule:nonzero;"/></g><g transform="matrix(1,0,0,1,-187,-179.5)"><path d="M957.935,691.922C961.12,692.922 964.514,693.069 967.774,692.347C963.553,686.973 956.538,684.567 949.907,686.218C952.037,688.789 954.806,690.757 957.935,691.922Z" style="fill:rgb(38,38,38);fill-rule:nonzero;"/></g><g transform="matrix(1,0,0,1,-187,-179.5)"><path d="M469.026,719.305L467.248,719.27C467.936,699.502 470.045,679.809 473.559,660.343C481.247,618.668 494.032,591.297 511.556,578.993L512.577,580.448C471.639,609.191 469.047,718.207 469.026,719.305Z" style="fill:rgb(38,38,38);fill-rule:nonzero;"/></g><g transform="matrix(1,0,0,1,-187,-179.5)"><path d="M491.25,718.88L489.472,718.845C489.51,716.876 490.622,670.473 508.89,657.647L509.911,659.102C492.379,671.41 491.259,718.407 491.25,718.88Z" style="fill:rgb(38,38,38);fill-rule:nonzero;"/></g><circle cx="335.692" cy="392.219" r="8.89" style="fill:rgb(38,38,38);"/><circle cx="331.29" cy="468.67" r="8.89" style="fill:rgb(38,38,38);"/><g transform="matrix(1,0,0,1,-187,-179.5)"><path d="M487.106,585.938C487.997,592.795 487.072,599.767 484.423,606.154C474.988,595.608 472.612,580.435 478.373,567.51C482.847,572.782 485.859,579.137 487.106,585.938Z" style="fill:rgb(38,38,38);fill-rule:nonzero;"/></g><g transform="matrix(1,0,0,1,-187,-179.5)"><path d="M516.164,611.855C509.567,613.927 502.541,614.23 495.79,612.734C504.531,601.606 519.058,596.623 532.789,600.044C528.377,605.368 522.644,609.441 516.164,611.855Z" style="fill:rgb(38,38,38);fill-rule:nonzero;"/></g><g transform="matrix(1,0,0,1,-187,-179.5)"><path d="M516.492,679.559C511.869,681.012 506.944,681.224 502.212,680.176C508.338,672.376 518.521,668.883 528.145,671.281C525.053,675.013 521.034,677.868 516.492,679.559Z" style="fill:rgb(38,38,38);fill-rule:nonzero;"/></g><g transform="matrix(1,0,0,1,-187,-179.5)"><path d="M331.679,340.734L327.401,314.566L315.324,311.546C315.324,311.546 305.738,308.594 303.498,327.901C301.258,347.209 302.994,383.258 302.994,383.258L276.478,467.228C272.396,469.168 269.783,473.302 269.783,477.821C269.783,484.256 275.078,489.55 281.512,489.55C287.946,489.55 293.241,484.256 293.241,477.821C293.241,476.596 293.049,475.379 292.672,474.213L327.15,395.335L331.679,340.734Z" style="fill:rgb(255,183,183);fill-rule:nonzero;"/></g><g transform="matrix(1,0,0,1,-187,-179.5)"><path d="M405.122,320.141L398.782,294.395L408.704,286.876C408.704,286.876 416.36,280.397 426.001,297.274C435.643,314.152 448.199,347.987 448.199,347.987L505.557,414.803C511.808,415.054 516.815,420.265 516.815,426.522C516.815,432.956 511.52,438.251 505.086,438.251C499.052,438.251 493.953,433.594 493.406,427.585L430.726,368.579L405.122,320.141Z" style="fill:rgb(255,183,183);fill-rule:nonzero;"/></g><path d="M267.689,526.093L282.072,526.092L288.915,470.614L267.686,470.615L267.689,526.093Z" style="fill:rgb(255,183,183);fill-rule:nonzero;"/><g transform="matrix(1,0,0,1,-187,-179.5)"><path d="M451.02,700.897L479.347,700.896C489.249,700.896 497.398,709.044 497.398,718.947L497.398,719.533L451.021,719.535L451.02,700.897Z" style="fill:rgb(47,46,65);fill-rule:nonzero;"/></g><path d="M87.016,526.093L101.399,526.092L108.242,470.614L87.013,470.615L87.016,526.093Z" style="fill:rgb(255,183,183);fill-rule:nonzero;"/><g transform="matrix(1,0,0,1,-187,-179.5)"><path d="M270.347,700.897L298.674,700.896C308.576,700.896 316.725,709.044 316.725,718.947L316.725,719.533L270.348,719.535L270.347,700.897Z" style="fill:rgb(47,46,65);fill-rule:nonzero;"/></g><circle cx="175.23" cy="52.431" r="38.902" style="fill:rgb(47,46,65);"/><g transform="matrix(0.707107,-0.707107,0.707107,0.707107,-235.431,108.415)"><ellipse cx="323.328" cy="202.419" rx="16.097" ry="12.073" style="fill:rgb(47,46,65);"/></g><g transform="matrix(0.392826,-0.919613,0.919613,0.392826,-128.255,294.032)"><ellipse cx="387.973" cy="192.279" rx="12.073" ry="16.097" style="fill:rgb(47,46,65);"/></g><g transform="matrix(0.47966,-0.877455,0.877455,0.47966,-209.533,264.938)"><circle cx="363.464" cy="241.218" r="33.016" style="fill:rgb(255,183,183);"/></g><g transform="matrix(1,0,0,1,-187,-179.5)"><path d="M328.772,220.451C336.316,225.65 345.273,228.419 354.434,228.382C351.166,230.648 347.445,232.179 343.528,232.869C355.71,235.482 368.302,235.553 380.513,233.077C383.227,232.642 385.846,231.742 388.255,230.418C390.682,229.062 392.421,226.737 393.034,224.026C393.846,219.391 390.234,215.179 386.48,212.341C374.849,203.68 359.918,200.697 345.851,204.222C341.313,205.395 336.766,207.377 333.819,211.022C330.871,214.667 329.997,220.286 332.806,224.039L328.772,220.451Z" style="fill:rgb(47,46,65);fill-rule:nonzero;"/></g><g transform="matrix(1,0,0,1,-187,-179.5)"><path d="M346.918,284.151L314.24,310.838L342.792,378.917L343.337,389.81C343.337,389.81 313.697,417.138 295.357,493.478C277.018,569.818 239.978,671.256 239.978,671.256L314.079,689.384L365.599,516.694L431.276,652.174L440.619,692.246L497.899,676.345L475.792,568.808L421.572,401.886L426.025,355.772C426.025,355.772 435.947,332.754 418.71,308.385L413.304,285.487L385.317,280.717L346.918,284.151Z" style="fill:rgb(47,46,65);fill-rule:nonzero;"/></g><g transform="matrix(1,0,0,1,-187,-179.5)"><path d="M896.415,526.429L669.543,526.429C665.796,526.425 662.714,523.343 662.71,519.596L662.71,443.061C662.714,439.314 665.796,436.232 669.543,436.227L896.415,436.227C900.162,436.232 903.244,439.314 903.248,443.061L903.248,519.596C903.244,523.343 900.162,526.425 896.415,526.429Z" style="fill:rgb(51,51,51);fill-rule:nonzero;"/></g><rect x="511.244" y="277.228" width="60.135" height="6.833" style="fill:rgb(38,38,38);"/><circle cx="650.647" cy="281.328" r="4.1" style="fill:rgb(39,120,189);"/><circle cx="664.314" cy="281.328" r="4.1" style="fill:rgb(39,120,189);"/><circle cx="677.981" cy="281.328" r="4.1" style="fill:rgb(39,120,189);"/><g transform="matrix(1,0,0,1,-187,-179.5)"><path d="M896.415,623.465L669.543,623.465C665.796,623.46 662.714,620.378 662.71,616.631L662.71,540.096C662.714,536.349 665.796,533.267 669.543,533.263L896.415,533.263C900.162,533.267 903.244,536.349 903.248,540.096L903.248,616.631C903.244,620.378 900.162,623.46 896.415,623.465Z" style="fill:rgb(51,51,51);fill-rule:nonzero;"/></g><rect x="511.244" y="374.263" width="60.135" height="6.833" style="fill:rgb(38,38,38);"/><circle cx="650.647" cy="378.363" r="4.1" style="fill:rgb(39,120,189);"/><circle cx="664.314" cy="378.363" r="4.1" style="fill:rgb(39,120,189);"/><circle cx="677.981" cy="378.363" r="4.1" style="fill:rgb(39,120,189);"/><g transform="matrix(1,0,0,1,-187,-179.5)"><path d="M896.415,720.5L669.543,720.5C665.796,720.496 662.714,717.414 662.71,713.667L662.71,637.132C662.714,633.384 665.796,630.302 669.543,630.298L896.415,630.298C900.162,630.302 903.244,633.384 903.248,637.132L903.248,713.667C903.244,717.414 900.162,720.496 896.415,720.5Z" style="fill:rgb(51,51,51);fill-rule:nonzero;"/></g><rect x="511.244" y="471.299" width="60.135" height="6.833" style="fill:rgb(38,38,38);"/><circle cx="650.647" cy="475.399" r="4.1" style="fill:rgb(39,120,189);"/><circle cx="664.314" cy="475.399" r="4.1" style="fill:rgb(39,120,189);"/><circle cx="677.981" cy="475.399" r="4.1" style="fill:rgb(39,120,189);"/><g transform="matrix(1,0,0,1,-187,-179.5)"><path d="M624.17,555.475C619.849,555.461 615.546,554.904 611.364,553.819L610.539,553.59L609.775,553.207C582.127,539.345 558.803,521.036 540.449,498.787C525.255,480.262 513.41,459.227 505.445,436.631C495.92,409.578 491.338,381.032 491.917,352.357C491.928,351.755 491.938,351.29 491.938,350.97C491.938,337.031 499.676,324.8 511.65,319.811C520.815,315.992 604.025,281.815 610.037,279.345C621.359,273.672 633.439,278.407 635.372,279.235C639.707,281.008 716.63,312.47 733.253,320.386C750.385,328.544 754.956,343.199 754.956,350.572C754.956,383.954 749.174,415.152 737.772,443.299C728.564,466.082 715.512,487.116 699.187,505.482C667.689,540.929 636.183,553.495 635.879,553.606C632.113,554.901 628.151,555.534 624.17,555.475ZM616.76,537.122C619.492,537.734 625.781,538.653 629.88,537.158C635.087,535.259 661.457,521.584 686.1,493.853C720.147,455.538 737.422,407.373 737.448,350.696C737.387,349.547 736.571,341.358 725.726,336.193C709.425,328.431 629.471,295.738 628.665,295.408L628.444,295.314C626.768,294.612 621.436,293.133 617.76,295.06L617.024,295.403C616.133,295.769 527.804,332.047 518.384,335.972C511.794,338.718 509.446,345.52 509.446,350.97C509.446,351.369 509.436,351.948 509.421,352.697C508.669,391.478 517.643,486.905 616.76,537.122Z" style="fill:rgb(63,61,86);fill-rule:nonzero;"/></g><g transform="matrix(1,0,0,1,-187,-179.5)"><path d="M613.698,287.305C613.698,287.305 524.567,323.913 515.017,327.892C505.467,331.871 500.692,341.42 500.692,350.97C500.692,360.52 493.53,485.132 613.698,545.382C613.698,545.382 624.605,548.399 632.879,545.382C641.154,542.364 746.202,491.432 746.202,350.572C746.202,350.572 746.202,336.248 729.489,328.289C712.777,320.331 631.977,287.305 631.977,287.305C631.977,287.305 622.054,282.928 613.698,287.305Z" style="fill:rgb(39,120,189);fill-rule:nonzero;"/></g><g transform="matrix(1,0,0,1,-187,-179.5)"><path d="M623.248,315.954L623.248,511.243C623.248,511.243 713.175,467.955 712.379,354.154L623.248,315.954Z" style="fill-opacity:0.2;fill-rule:nonzero;"/></g><g transform="matrix(1,0,0,1,-187,-179.5)"><path d="M1012,720.5L188,720.5C187.451,720.5 187,720.049 187,719.5C187,718.951 187.451,718.5 188,718.5L1012,718.5C1012.55,718.5 1013,718.951 1013,719.5C1013,720.049 1012.55,720.5 1012,720.5Z" style="fill:rgb(77,77,77);fill-rule:nonzero;"/></g></svg>