<?xml version="1.0" encoding="UTF-8" standalone="no"?><!DOCTYPE svg PUBLIC "-//W3C//DTD SVG 1.1//EN" "http://www.w3.org/Graphics/SVG/1.1/DTD/svg11.dtd"><svg width="100%" height="100%" viewBox="0 0 850 843" version="1.1" xmlns="http://www.w3.org/2000/svg" xmlns:xlink="http://www.w3.org/1999/xlink" xml:space="preserve" xmlns:serif="http://www.serif.com/" style="fill-rule:evenodd;clip-rule:evenodd;stroke-linejoin:round;stroke-miterlimit:2;"><g id="Layer1"><rect x="-22.687" y="-25.897" width="924.224" height="946.647" style="fill:rgb(18,18,18);"/></g><g transform="matrix(1,0,0,1,-175.363,-28.9988)"><path d="M1017.36,449.999C1017.42,497.911 1009.28,545.481 993.293,590.649C993.283,590.679 993.273,590.699 993.263,590.729C993.193,590.939 993.123,591.129 993.043,591.339L993.043,591.349C989.633,600.929 985.887,610.349 981.803,619.609C971.502,642.96 959.098,665.326 944.743,686.429C941.263,691.569 937.66,696.626 933.933,701.599C929.833,707.099 925.603,712.489 921.243,717.769C917.223,722.639 913.097,727.416 908.863,732.099C903.833,737.679 898.653,743.115 893.323,748.409C880.779,760.902 867.459,772.592 853.443,783.409C850.983,785.319 848.497,787.196 845.983,789.039C840.133,793.359 834.167,797.525 828.083,801.539C814.702,810.384 800.823,818.451 786.513,825.699C784.043,826.959 781.553,828.199 779.053,829.399C769.383,834.069 759.517,838.366 749.453,842.289C746.583,843.419 743.703,844.509 740.793,845.559C740.303,845.749 739.813,845.929 739.313,846.099C704.806,858.553 668.811,866.414 632.253,869.479C629.713,869.709 627.17,869.902 624.623,870.059C621.923,870.249 619.22,870.402 616.513,870.519C614.373,870.629 612.243,870.709 610.093,870.769C609.653,870.789 609.203,870.809 608.763,870.809C605.873,870.899 602.973,870.955 600.063,870.979C598.833,870.989 597.603,870.999 596.363,870.999C595.783,870.999 595.203,870.999 594.623,870.989C586.233,870.959 577.907,870.685 569.643,870.169C569.473,870.159 569.303,870.139 569.133,870.139C566.173,869.939 563.223,869.729 560.283,869.469C549.813,868.589 539.457,867.322 529.213,865.669C526.853,865.299 524.5,864.899 522.153,864.469C511.963,862.669 501.907,860.499 491.983,857.959C489.033,857.209 486.1,856.425 483.183,855.609C466.35,850.924 449.827,845.186 433.713,838.429C424.463,834.549 415.387,830.355 406.483,825.849C402.473,823.819 398.503,821.725 394.573,819.569C393.503,818.989 392.443,818.399 391.383,817.809C383.643,813.489 376.063,808.935 368.643,804.149C362.563,800.239 356.597,796.172 350.743,791.949C350.023,791.449 349.313,790.929 348.603,790.409C344.113,787.139 339.697,783.785 335.353,780.349C325.903,772.859 316.79,764.989 308.013,756.739C301.943,751.039 296.05,745.159 290.333,739.099C257.025,703.873 230.039,663.165 210.563,618.769C206.423,609.319 202.623,599.696 199.163,589.899C199.152,589.877 199.145,589.853 199.143,589.829C183.354,544.903 175.312,497.619 175.363,449.999C175.363,273.239 284.303,121.919 438.703,59.519C549.934,14.757 675.129,19.441 782.703,72.389C921.743,141.119 1017.36,284.399 1017.36,449.999Z" style="fill:rgb(26,26,26);fill-rule:nonzero;"/></g><g transform="matrix(1,0,0,1,-175.363,-28.9988)"><path d="M782.703,72.389L782.703,604.399L438.703,604.399L438.703,59.519C549.934,14.757 675.129,19.441 782.703,72.389Z" style="fill:rgb(51,51,51);fill-rule:nonzero;"/></g><g transform="matrix(1,0,0,1,-175.363,-28.9988)"><path d="M521.485,314.998C530.817,299.563 541.875,283.084 559.192,278.045C579.247,272.208 599.849,283.802 617.324,295.243C669.583,329.459 719.911,366.54 768.074,406.315L768.022,406.914C730.524,404.328 693.027,401.742 655.529,399.156C628.437,397.288 600.415,395.162 576.473,382.345C567.388,377.482 558.532,370.986 548.237,370.533C535.446,369.971 524.294,378.904 515.53,388.236C463.686,443.443 448.683,527.867 390.52,576.37C427.196,485.92 470.988,398.522 521.485,314.998Z" style="fill:rgb(38,38,38);fill-rule:nonzero;"/></g><g transform="matrix(1,0,0,1,-175.363,-28.9988)"><path d="M807.865,85.958C806.995,85.378 806.115,84.828 805.245,84.268C780.096,68.184 753.14,55.117 724.935,45.338L718.395,135.558L676.935,135.558L676.935,32.168C674.325,31.628 671.695,31.118 669.065,30.638L669.065,135.558L619.795,135.558C563.691,135.558 517.525,89.392 517.525,33.288L517.525,33.288C514.885,33.858 512.265,34.468 509.645,35.118L509.645,135.558L469.515,135.558L463.285,49.528C434.3,60.645 406.782,75.263 381.345,93.058C380.905,93.358 380.465,93.668 380.035,93.968C377.825,95.518 375.645,97.098 373.475,98.698L373.475,600.888L491.745,600.888L489.655,571.938L478.155,254.988L709.745,254.988L698.245,571.938L696.155,600.888L813.115,600.888L813.115,89.438C811.375,88.258 809.625,87.098 807.865,85.958ZM509.645,228.738L476.255,228.738L470.085,143.438L509.645,143.438L509.645,228.738ZM669.065,228.738L612.985,228.738C612.985,228.738 612.985,227.048 612.985,227.048C612.985,223.658 610.195,220.868 606.805,220.868C606.802,220.868 606.798,220.868 606.795,220.868L582.415,220.868C582.414,220.868 582.413,220.868 582.412,220.868C579.024,220.868 576.235,223.657 576.235,227.046C576.235,227.047 576.235,228.738 576.235,228.738L517.525,228.738L517.525,143.438L669.065,143.438L669.065,228.738ZM676.935,228.738L676.935,143.438L717.825,143.438L711.655,228.738L676.935,228.738Z" style="fill:rgb(63,61,86);fill-rule:nonzero;"/></g><g transform="matrix(1,0,0,1,-175.363,-28.9988)"><path d="M993.294,590.647C993.284,590.677 993.274,590.697 993.264,590.727C993.194,590.937 993.124,591.127 993.044,591.337L993.044,591.347C989.634,600.927 985.888,610.347 981.804,619.607L210.564,618.767C206.424,609.317 202.624,599.693 199.164,589.897C199.153,589.875 199.146,589.851 199.144,589.827L993.294,590.647Z" style="fill:rgb(63,61,86);fill-rule:nonzero;"/></g><rect x="394.711" y="564.938" width="135" height="18" style="fill:rgb(38,38,38);"/><g transform="matrix(1,0,0,1,-175.363,-28.9988)"><path d="M391.373,770.209C391.853,765.979 392.517,761.775 393.363,757.599C397.991,734.953 407.923,713.723 422.343,695.659C430.593,696.119 437.823,694.859 438.513,678.879C438.643,676.039 440.753,673.569 441.213,670.769C440.433,670.879 439.623,670.939 438.843,670.989C438.593,670.999 438.333,671.019 438.093,671.029L438.003,671.029C437.933,671.032 437.863,671.034 437.793,671.034C435.331,671.034 433.304,669.007 433.304,666.545C433.304,665.512 433.661,664.51 434.313,663.709C434.653,663.299 434.993,662.879 435.333,662.459C435.843,661.809 436.373,661.179 436.893,660.539C436.953,660.469 437.003,660.409 437.063,660.339C437.653,659.609 438.243,658.879 438.843,658.149C437.759,656.466 436.301,655.056 434.583,654.029C428.633,650.539 420.423,652.959 416.123,658.339C411.813,663.719 410.993,671.279 412.493,677.999C413.773,683.759 416.563,689.039 419.693,694.059C419.373,694.469 419.033,694.869 418.713,695.289C412.816,702.875 407.674,711.021 403.363,719.609C404.583,710.079 389.673,675.679 383.903,668.389C376.973,659.639 362.773,663.459 361.553,674.559C361.543,674.659 361.523,674.769 361.513,674.879C362.373,675.359 363.213,675.869 364.033,676.419C365.739,677.559 366.766,679.48 366.766,681.531C366.766,684.553 364.539,687.149 361.553,687.609L361.423,687.629C349.963,703.999 386.713,746.609 395.923,737.049C393.608,743.555 391.76,750.219 390.393,756.989C389.167,762.96 388.312,769.002 387.833,775.079C387.25,782.733 387.287,790.421 387.943,798.069C387.925,797.98 387.912,797.889 387.903,797.799C385.853,781.139 350.783,756.369 340.543,758.429C334.643,759.619 328.833,759.349 329.733,765.299C329.743,765.399 329.763,765.489 329.773,765.589C331.364,766.231 332.91,766.975 334.403,767.819C335.263,768.299 336.103,768.819 336.923,769.359C338.63,770.5 339.658,772.423 339.658,774.477C339.658,777.156 337.909,779.542 335.353,780.349C339.703,783.779 344.12,787.132 348.603,790.409C349.313,790.929 350.023,791.449 350.743,791.949C356.593,796.169 362.56,800.235 368.643,804.149C376.063,808.929 383.643,813.482 391.383,817.809C392.443,818.399 393.503,818.989 394.573,819.569C391.883,808.5 390.52,797.15 390.513,785.759C390.511,780.563 390.798,775.372 391.373,770.209ZM396.843,734.479L396.863,734.449C396.863,734.467 396.856,734.485 396.843,734.499L396.843,734.479ZM388.873,806.389L388.563,805.699C388.573,805.189 388.573,804.689 388.563,804.169C388.563,804.029 388.533,803.889 388.533,803.749C388.653,804.639 388.753,805.529 388.883,806.419L388.873,806.389ZM434.803,807.749C434.913,807.289 435.003,806.969 435.113,806.509C435.073,806.409 435.033,806.309 434.993,806.219C431.663,798.289 414.083,814.279 406.483,825.849C415.383,830.349 424.46,834.542 433.713,838.429C434.333,837.649 434.973,836.879 435.603,836.099C435.663,836.029 435.713,835.969 435.763,835.899C437.123,834.219 438.493,832.559 439.843,830.879C439.853,830.549 439.853,830.219 439.853,829.899C439.84,825.082 439.249,820.285 438.093,815.609C438.024,815.612 437.954,815.614 437.884,815.614C435.396,815.614 433.348,813.566 433.348,811.078C433.348,809.814 433.876,808.607 434.803,807.749L434.803,807.749Z" style="fill:rgb(38,38,38);fill-rule:nonzero;"/></g><g transform="matrix(1,0,0,1,-175.363,-28.9988)"><path d="M651.121,599.624C654.451,601.921 658.403,603.152 662.449,603.152C670.255,603.152 677.373,598.572 680.608,591.468L751.202,598.071L733.871,565.557L669.49,564.271C667.225,563.416 664.824,562.978 662.403,562.978C651.399,562.978 642.343,572.033 642.343,583.038C642.343,589.672 645.635,595.892 651.121,599.624L651.121,599.624Z" style="fill:rgb(255,182,182);fill-rule:nonzero;"/></g><g transform="matrix(1,0,0,1,-175.363,-28.9988)"><path d="M722.703,597.399L820.394,608.351L820.73,607.92C821.375,607.097 885.296,525.274 896.036,505.796C902.642,494.096 905.049,480.481 902.855,467.225L902.782,466.901L902.528,466.686C891.839,457.728 876.231,457.386 865.159,465.867C839.224,485.953 818.309,511.796 804.071,541.35L795.992,558.171L722.703,565.399L722.703,597.399Z" style="fill:rgb(39,120,189);fill-rule:nonzero;"/></g><g transform="matrix(1,0,0,1,-175.363,-28.9988)"><path d="M643.446,826.241L624.626,870.061C621.926,870.251 619.222,870.405 616.516,870.521C614.376,870.631 612.246,870.711 610.096,870.771L609.366,871.001L608.766,870.811C605.876,870.901 602.976,870.958 600.066,870.981C598.836,870.991 597.606,871.001 596.366,871.001C595.786,871.001 595.206,871.001 594.626,870.991L595.876,866.711L597.346,861.641L603.186,841.561L611.616,812.571L624.156,817.951L643.446,826.241Z" style="fill:rgb(255,182,182);fill-rule:nonzero;"/></g><g transform="matrix(1,0,0,1,-175.363,-28.9988)"><path d="M779.056,829.401C769.386,834.071 759.519,838.368 749.456,842.291L739.616,825.741L771.336,811.811L779.056,829.401Z" style="fill:rgb(255,182,182);fill-rule:nonzero;"/></g><g transform="matrix(1,0,0,1,-175.363,-28.9988)"><path d="M845.986,754.181L845.986,789.041C840.136,793.361 834.169,797.528 828.086,801.541L828.086,754.181L845.986,754.181Z" style="fill:rgb(202,202,202);fill-rule:nonzero;"/></g><g transform="matrix(1,0,0,1,-175.363,-28.9988)"><path d="M908.866,732.101C903.836,737.681 898.656,743.118 893.326,748.411C880.781,760.904 867.461,772.594 853.446,783.411L773.646,783.411C769.362,783.412 765.28,781.562 762.456,778.341L762.446,778.311C760.782,776.433 759.625,774.161 759.086,771.711L759.076,771.691C758.85,770.639 758.736,769.567 758.736,768.491L758.736,747.021C758.741,738.842 765.467,732.112 773.646,732.101L908.866,732.101Z" style="fill:rgb(63,61,86);fill-rule:nonzero;"/></g><g transform="matrix(1,0,0,1,-175.363,-28.9988)"><path d="M941.746,648.301L933.096,685.361C933.942,690.73 934.223,696.173 933.936,701.601C929.836,707.101 925.606,712.491 921.246,717.771C917.226,722.641 913.099,727.418 908.866,732.101C903.836,737.681 898.656,743.118 893.326,748.411C879.446,752.771 863.086,754.551 845.986,754.671C840.086,754.721 834.096,754.561 828.086,754.241C803.716,752.961 779.066,749.051 758.876,744.991C753.536,743.931 748.516,742.851 743.896,741.801C735.146,739.831 727.826,737.991 722.526,736.591C716.556,735.031 713.156,734.021 713.156,734.021L690.446,772.051L669.826,806.571L643.256,840.481C640.716,840.711 638.172,840.905 635.626,841.061C632.926,841.251 630.222,841.405 627.516,841.521C625.376,841.631 623.246,841.711 621.096,841.771L620.366,842.001L619.766,841.811L610.126,838.741L606.876,837.711L595.186,833.991C595.186,833.991 597.796,825.771 602.366,812.061C604.046,807.031 615.946,769.841 628.396,737.371C632.086,727.731 635.906,717.951 639.836,708.221C643.056,700.231 646.336,692.271 649.656,684.421C655.426,670.811 683.306,663.471 716.136,659.621C717.806,659.431 719.486,659.241 721.176,659.061C737.906,657.301 755.656,656.391 772.256,655.971C780.566,655.761 788.586,655.681 796.046,655.671C798.456,655.671 800.799,655.678 803.076,655.691L803.086,655.691C809.236,655.721 814.896,655.811 819.876,655.911C820.846,655.931 821.786,655.961 822.706,655.981L822.716,655.981C823.336,655.991 823.946,656.011 824.546,656.021C835.436,656.301 842.116,656.641 842.116,656.641L844.706,636.321L845.236,632.221L845.736,628.321L845.736,628.311L845.796,627.821L846.206,627.811L853.406,627.671L913.926,626.491L939.703,625.399L941.746,648.301Z" style="fill:rgb(47,46,65);fill-rule:nonzero;"/></g><g transform="matrix(1,0,0,1,-175.363,-28.9988)"><path d="M777.516,812.701C775.046,813.961 772.556,815.201 770.056,816.401C760.386,821.071 750.519,825.368 740.456,829.291C737.586,830.421 734.706,831.511 731.796,832.561C731.476,832.111 731.146,831.661 730.816,831.211C716.936,812.161 708.296,800.021 690.446,772.051C682.976,760.351 675.466,748.151 668.176,735.691L720.956,711.051L726.876,708.291L743.896,741.801L759.076,771.691L762.456,778.341L777.516,812.701Z" style="fill:rgb(47,46,65);fill-rule:nonzero;"/></g><circle cx="687.764" cy="331.428" r="48.625" style="fill:rgb(255,182,182);"/><g transform="matrix(1,0,0,1,-175.363,-28.9988)"><path d="M949.926,511.571C949.526,471.411 950.706,483.041 947.526,469.211C938.986,432.031 903.536,425.251 897.356,424.411C895.361,419.101 890.255,415.564 884.582,415.564C882.623,415.564 880.687,415.986 878.906,416.801L867.074,422.937C855.604,428.187 862.566,435.771 858.606,447.741L854.446,460.441L820.356,554.671L827.256,590.521L827.266,590.541L831.916,614.691L845.703,630.399L845.446,627.891L845.136,628.371L845.126,628.381L844.326,629.571C845.436,630.181 846.536,630.781 847.616,631.381C850.416,632.921 853.146,634.431 855.806,635.911C856.446,636.271 857.076,636.621 857.706,636.981L857.716,636.981C858.116,637.201 858.516,637.421 858.906,637.641C868.886,643.221 831.946,653.381 840.156,658.151C841.296,658.811 842.426,659.471 843.536,660.121C881.336,682.231 911.496,709.771 921.246,717.771C925.606,712.491 929.836,707.101 933.936,701.601C937.656,696.631 941.259,691.575 944.746,686.431C945.356,682.411 945.766,678.391 946.166,674.451C946.646,669.711 944.146,625.801 944.986,620.971C945.356,618.831 943.936,616.801 942.566,614.841C941.296,613.011 940.096,611.291 940.346,609.671C940.606,608.001 942.446,606.181 944.236,604.411C946.186,602.471 948.206,600.471 948.496,598.361C949.296,592.481 946.006,586.581 946.626,580.661C947.646,571.031 948.429,561.371 948.976,551.681C949.746,538.301 950.062,524.931 949.926,511.571Z" style="fill:rgb(39,120,189);fill-rule:nonzero;"/></g><g transform="matrix(1,0,0,1,-175.363,-28.9988)"><path d="M675.661,610.061C679.427,606.092 684.664,603.841 690.135,603.841C696.469,603.841 702.439,606.857 706.196,611.956L773.908,590.925L763.661,626.316L700.932,640.862C697.705,642.925 693.954,644.022 690.124,644.022C679.12,644.022 670.064,634.967 670.064,623.962C670.064,618.781 672.071,613.797 675.661,610.061L675.661,610.061Z" style="fill:rgb(255,182,182);fill-rule:nonzero;"/></g><g transform="matrix(1,0,0,1,-175.363,-28.9988)"><path d="M757.751,629.64L883.433,603.728L850.815,611.807C851.185,610.83 887.845,513.685 892.298,491.893C895.121,478.757 893.365,465.042 887.323,453.041L887.157,452.753L886.85,452.624C873.978,447.255 858.977,451.575 850.932,462.968C832.154,489.866 819.883,520.765 815.091,553.217L812.386,571.681L768.074,584.937L757.751,629.64Z" style="fill:rgb(39,120,189);fill-rule:nonzero;"/></g><g transform="matrix(1,0,0,1,-175.363,-28.9988)"><path d="M523.526,590.069C524.427,592.694 526.934,594.45 529.709,594.4L556.201,593.718C558.998,593.664 561.443,591.76 562.181,589.061L565.93,548.974C567.26,549.576 568.708,549.874 570.168,549.845C575.375,549.714 579.587,545.395 579.587,540.186C579.587,534.886 575.226,530.525 569.926,530.525C569.845,530.525 569.764,530.526 569.683,530.528C569.1,530.526 568.518,530.587 567.947,530.709C566.693,529.352 564.921,528.587 563.073,528.606L522.323,529.658C521.985,529.67 521.648,529.712 521.317,529.783C518.316,530.342 516.119,532.986 516.119,536.039C516.119,536.722 516.229,537.4 516.444,538.047L523.526,590.069ZM566.699,546.252L569.367,536.699C569.67,535.596 569.677,534.432 569.387,533.325C569.516,533.324 569.631,533.263 569.76,533.263C569.808,533.262 569.855,533.261 569.903,533.261C573.694,533.261 576.813,536.381 576.813,540.172C576.813,543.894 573.805,546.982 570.084,547.08C568.901,547.117 567.731,546.831 566.699,546.252Z" style="fill:rgb(47,46,65);fill-rule:nonzero;"/></g><g transform="matrix(1,0,0,1,-175.363,-28.9988)"><path d="M521.317,529.783C522.186,534.747 531.946,538.237 543.683,537.63C554.476,537.133 563.301,533.343 564.917,528.852C564.319,528.675 563.697,528.592 563.073,528.606L522.323,529.658C521.985,529.67 521.648,529.712 521.317,529.783Z" style="fill:rgb(63,61,86);fill-rule:nonzero;"/></g><g transform="matrix(1,0,0,1,-175.363,-28.9988)"><path d="M344.106,493.493L344.106,579.197C344.108,581.456 345.966,583.314 348.225,583.316L475.23,583.316C477.489,583.314 479.347,581.456 479.349,579.197L479.349,493.493C479.343,491.236 477.486,489.381 475.23,489.378L348.225,489.378C345.968,489.381 344.111,491.236 344.106,493.493Z" style="fill:rgb(63,61,86);fill-rule:nonzero;"/></g><g transform="matrix(1,0,0,1,-175.363,-28.9988)"><path d="M347.086,494.559L347.086,578.14C347.088,579.347 348.08,580.339 349.287,580.341L474.172,580.341C475.379,580.339 476.372,579.347 476.374,578.14L476.374,494.559C476.374,493.351 475.381,492.356 474.172,492.353L349.287,492.353C348.079,492.356 347.086,493.351 347.086,494.559Z" style="fill:rgb(39,120,189);fill-rule:nonzero;"/></g><g transform="matrix(1,0,0,1,-175.363,-28.9988)"><path d="M341.45,595.911C341.921,596.502 342.638,596.845 343.393,596.841L479.385,596.841C480.757,596.84 481.885,595.71 481.885,594.339C481.885,594.166 481.867,593.994 481.831,593.826L479.72,583.798C479.543,582.968 478.955,582.283 478.162,581.981C477.879,581.87 477.578,581.813 477.274,581.813L345.496,581.813C345.192,581.813 344.891,581.87 344.608,581.981C343.815,582.283 343.227,582.968 343.05,583.798L340.939,593.826C340.787,594.562 340.975,595.329 341.45,595.911Z" style="fill:rgb(47,46,65);fill-rule:nonzero;"/></g><g transform="matrix(-1,7.65714e-16,-7.65714e-16,-1,773.065,1140.75)"><path d="M476.308,584.107L476.308,585.644C476.308,585.913 476.09,586.132 475.82,586.132L472.608,586.132C472.339,586.132 472.12,585.913 472.12,585.644L472.12,584.107C472.12,583.838 472.339,583.619 472.608,583.619L475.82,583.619C476.09,583.619 476.308,583.838 476.308,584.107Z" style="fill:rgb(63,61,86);"/></g><g transform="matrix(-1,7.65714e-16,-7.65714e-16,-1,756.311,1140.75)"><path d="M467.931,584.107L467.931,585.644C467.931,585.913 467.713,586.132 467.443,586.132L464.231,586.132C463.962,586.132 463.743,585.913 463.743,585.644L463.743,584.107C463.743,583.838 463.962,583.619 464.231,583.619L467.443,583.619C467.713,583.619 467.931,583.838 467.931,584.107Z" style="fill:rgb(63,61,86);"/></g><g transform="matrix(-1,7.65714e-16,-7.65714e-16,-1,739.557,1140.75)"><path d="M459.554,584.107L459.554,585.644C459.554,585.913 459.336,586.132 459.066,586.132L455.854,586.132C455.585,586.132 455.366,585.913 455.366,585.644L455.366,584.107C455.366,583.838 455.585,583.619 455.854,583.619L459.066,583.619C459.336,583.619 459.554,583.838 459.554,584.107Z" style="fill:rgb(63,61,86);"/></g><g transform="matrix(-1,7.65714e-16,-7.65714e-16,-1,722.803,1140.75)"><path d="M451.177,584.107L451.177,585.644C451.177,585.913 450.959,586.132 450.689,586.132L447.477,586.132C447.208,586.132 446.989,585.913 446.989,585.644L446.989,584.107C446.989,583.838 447.208,583.619 447.477,583.619L450.689,583.619C450.959,583.619 451.177,583.838 451.177,584.107Z" style="fill:rgb(63,61,86);"/></g><g transform="matrix(-1,7.65714e-16,-7.65714e-16,-1,706.049,1140.75)"><path d="M442.801,584.107L442.801,585.644C442.801,585.913 442.582,586.132 442.312,586.132L439.1,586.132C438.831,586.132 438.612,585.913 438.612,585.644L438.612,584.107C438.612,583.838 438.831,583.619 439.1,583.619L442.312,583.619C442.582,583.619 442.801,583.838 442.801,584.107Z" style="fill:rgb(63,61,86);"/></g><g transform="matrix(-1,7.65714e-16,-7.65714e-16,-1,689.295,1140.75)"><path d="M434.424,584.107L434.424,585.644C434.424,585.913 434.205,586.132 433.935,586.132L430.723,586.132C430.454,586.132 430.235,585.913 430.235,585.644L430.235,584.107C430.235,583.838 430.454,583.619 430.723,583.619L433.935,583.619C434.205,583.619 434.424,583.838 434.424,584.107Z" style="fill:rgb(63,61,86);"/></g><g transform="matrix(-1,7.65714e-16,-7.65714e-16,-1,672.541,1140.75)"><path d="M426.047,584.107L426.047,585.644C426.047,585.913 425.828,586.132 425.558,586.132L422.346,586.132C422.077,586.132 421.858,585.913 421.858,585.644L421.858,584.107C421.858,583.838 422.077,583.619 422.346,583.619L425.558,583.619C425.828,583.619 426.047,583.838 426.047,584.107Z" style="fill:rgb(63,61,86);"/></g><g transform="matrix(-1,7.65714e-16,-7.65714e-16,-1,655.787,1140.75)"><path d="M417.67,584.107L417.67,585.644C417.67,585.913 417.451,586.132 417.181,586.132L413.969,586.132C413.7,586.132 413.481,585.913 413.481,585.644L413.481,584.107C413.481,583.838 413.7,583.619 413.969,583.619L417.181,583.619C417.451,583.619 417.67,583.838 417.67,584.107Z" style="fill:rgb(63,61,86);"/></g><g transform="matrix(-1,7.65714e-16,-7.65714e-16,-1,639.033,1140.75)"><path d="M409.293,584.107L409.293,585.644C409.293,585.913 409.074,586.132 408.804,586.132L405.592,586.132C405.323,586.132 405.104,585.913 405.104,585.644L405.104,584.107C405.104,583.838 405.323,583.619 405.592,583.619L408.804,583.619C409.074,583.619 409.293,583.838 409.293,584.107Z" style="fill:rgb(63,61,86);"/></g><g transform="matrix(-1,7.65714e-16,-7.65714e-16,-1,622.279,1140.75)"><path d="M400.916,584.107L400.916,585.644C400.916,585.913 400.697,586.132 400.427,586.132L397.215,586.132C396.946,586.132 396.727,585.913 396.727,585.644L396.727,584.107C396.727,583.838 396.946,583.619 397.215,583.619L400.427,583.619C400.697,583.619 400.916,583.838 400.916,584.107Z" style="fill:rgb(63,61,86);"/></g><g transform="matrix(-1,7.65714e-16,-7.65714e-16,-1,605.525,1140.75)"><path d="M392.539,584.107L392.539,585.644C392.539,585.913 392.32,586.132 392.05,586.132L388.838,586.132C388.569,586.132 388.35,585.913 388.35,585.644L388.35,584.107C388.35,583.838 388.569,583.619 388.838,583.619L392.05,583.619C392.32,583.619 392.539,583.838 392.539,584.107Z" style="fill:rgb(63,61,86);"/></g><g transform="matrix(-1,7.65714e-16,-7.65714e-16,-1,588.771,1140.75)"><path d="M384.162,584.107L384.162,585.644C384.162,585.913 383.943,586.132 383.673,586.132L380.461,586.132C380.192,586.132 379.973,585.913 379.973,585.644L379.973,584.107C379.973,583.838 380.192,583.619 380.461,583.619L383.673,583.619C383.943,583.619 384.162,583.838 384.162,584.107Z" style="fill:rgb(63,61,86);"/></g><g transform="matrix(-1,7.65714e-16,-7.65714e-16,-1,572.017,1140.75)"><path d="M375.785,584.107L375.785,585.644C375.785,585.913 375.566,586.132 375.296,586.132L372.084,586.132C371.815,586.132 371.596,585.913 371.596,585.644L371.596,584.107C371.596,583.838 371.815,583.619 372.084,583.619L375.296,583.619C375.566,583.619 375.785,583.838 375.785,584.107Z" style="fill:rgb(63,61,86);"/></g><g transform="matrix(-1,7.65714e-16,-7.65714e-16,-1,555.264,1140.75)"><path d="M367.408,584.107L367.408,585.644C367.408,585.913 367.189,586.132 366.919,586.132L363.707,586.132C363.438,586.132 363.219,585.913 363.219,585.644L363.219,584.107C363.219,583.838 363.438,583.619 363.707,583.619L366.919,583.619C367.189,583.619 367.408,583.838 367.408,584.107Z" style="fill:rgb(63,61,86);"/></g><g transform="matrix(-1,7.65714e-16,-7.65714e-16,-1,538.51,1140.75)"><path d="M359.031,584.107L359.031,585.644C359.031,585.913 358.812,586.132 358.542,586.132L355.33,586.132C355.061,586.132 354.842,585.913 354.842,585.644L354.842,584.107C354.842,583.838 355.061,583.619 355.33,583.619L358.542,583.619C358.812,583.619 359.031,583.838 359.031,584.107Z" style="fill:rgb(63,61,86);"/></g><g transform="matrix(-1,7.65714e-16,-7.65714e-16,-1,521.756,1140.75)"><path d="M350.654,584.107L350.654,585.644C350.654,585.913 350.435,586.132 350.166,586.132L346.953,586.132C346.684,586.132 346.465,585.913 346.465,585.644L346.465,584.107C346.465,583.838 346.684,583.619 346.953,583.619L350.166,583.619C350.435,583.619 350.654,583.838 350.654,584.107Z" style="fill:rgb(63,61,86);"/></g><g transform="matrix(-1,7.65714e-16,-7.65714e-16,-1,773.263,1149.13)"><path d="M476.407,588.296L476.407,589.832C476.407,590.102 476.189,590.32 475.919,590.32L472.707,590.32C472.438,590.32 472.219,590.102 472.219,589.832L472.219,588.296C472.219,588.026 472.438,587.807 472.707,587.807L475.919,587.807C476.189,587.807 476.407,588.026 476.407,588.296Z" style="fill:rgb(63,61,86);"/></g><g transform="matrix(-1,7.65714e-16,-7.65714e-16,-1,756.509,1149.13)"><path d="M468.03,588.296L468.03,589.832C468.03,590.102 467.812,590.32 467.542,590.32L464.33,590.32C464.061,590.32 463.842,590.102 463.842,589.832L463.842,588.296C463.842,588.026 464.061,587.807 464.33,587.807L467.542,587.807C467.812,587.807 468.03,588.026 468.03,588.296Z" style="fill:rgb(63,61,86);"/></g><g transform="matrix(-1,7.65714e-16,-7.65714e-16,-1,739.755,1149.13)"><path d="M459.653,588.296L459.653,589.832C459.653,590.102 459.435,590.32 459.165,590.32L455.953,590.32C455.684,590.32 455.465,590.102 455.465,589.832L455.465,588.296C455.465,588.026 455.684,587.807 455.953,587.807L459.165,587.807C459.435,587.807 459.653,588.026 459.653,588.296Z" style="fill:rgb(63,61,86);"/></g><g transform="matrix(-1,7.65714e-16,-7.65714e-16,-1,723.001,1149.13)"><path d="M451.276,588.296L451.276,589.832C451.276,590.102 451.058,590.32 450.788,590.32L447.576,590.32C447.307,590.32 447.088,590.102 447.088,589.832L447.088,588.296C447.088,588.026 447.307,587.807 447.576,587.807L450.788,587.807C451.058,587.807 451.276,588.026 451.276,588.296Z" style="fill:rgb(63,61,86);"/></g><g transform="matrix(-1,7.65714e-16,-7.65714e-16,-1,706.247,1149.13)"><path d="M442.899,588.296L442.899,589.832C442.899,590.102 442.681,590.32 442.411,590.32L439.199,590.32C438.93,590.32 438.711,590.102 438.711,589.832L438.711,588.296C438.711,588.026 438.93,587.807 439.199,587.807L442.411,587.807C442.681,587.807 442.899,588.026 442.899,588.296Z" style="fill:rgb(63,61,86);"/></g><g transform="matrix(-1,7.65714e-16,-7.65714e-16,-1,689.493,1149.13)"><path d="M434.522,588.296L434.522,589.832C434.522,590.102 434.304,590.32 434.034,590.32L430.822,590.32C430.553,590.32 430.334,590.102 430.334,589.832L430.334,588.296C430.334,588.026 430.553,587.807 430.822,587.807L434.034,587.807C434.304,587.807 434.522,588.026 434.522,588.296Z" style="fill:rgb(63,61,86);"/></g><g transform="matrix(-1,7.65714e-16,-7.65714e-16,-1,672.739,1149.13)"><path d="M426.146,588.296L426.146,589.832C426.146,590.102 425.927,590.32 425.657,590.32L422.445,590.32C422.176,590.32 421.957,590.102 421.957,589.832L421.957,588.296C421.957,588.026 422.176,587.807 422.445,587.807L425.657,587.807C425.927,587.807 426.146,588.026 426.146,588.296Z" style="fill:rgb(63,61,86);"/></g><g transform="matrix(-1,7.65714e-16,-7.65714e-16,-1,655.985,1149.13)"><path d="M417.769,588.296L417.769,589.832C417.769,590.102 417.55,590.32 417.28,590.32L414.068,590.32C413.799,590.32 413.58,590.102 413.58,589.832L413.58,588.296C413.58,588.026 413.799,587.807 414.068,587.807L417.28,587.807C417.55,587.807 417.769,588.026 417.769,588.296Z" style="fill:rgb(63,61,86);"/></g><g transform="matrix(-1,7.65714e-16,-7.65714e-16,-1,639.231,1149.13)"><path d="M409.392,588.296L409.392,589.832C409.392,590.102 409.173,590.32 408.903,590.32L405.691,590.32C405.422,590.32 405.203,590.102 405.203,589.832L405.203,588.296C405.203,588.026 405.422,587.807 405.691,587.807L408.903,587.807C409.173,587.807 409.392,588.026 409.392,588.296Z" style="fill:rgb(63,61,86);"/></g><g transform="matrix(-1,7.65714e-16,-7.65714e-16,-1,622.477,1149.13)"><path d="M401.015,588.296L401.015,589.832C401.015,590.102 400.796,590.32 400.526,590.32L397.314,590.32C397.045,590.32 396.826,590.102 396.826,589.832L396.826,588.296C396.826,588.026 397.045,587.807 397.314,587.807L400.526,587.807C400.796,587.807 401.015,588.026 401.015,588.296Z" style="fill:rgb(63,61,86);"/></g><g transform="matrix(-1,7.65714e-16,-7.65714e-16,-1,605.723,1149.13)"><path d="M392.638,588.296L392.638,589.832C392.638,590.102 392.419,590.32 392.149,590.32L388.937,590.32C388.668,590.32 388.449,590.102 388.449,589.832L388.449,588.296C388.449,588.026 388.668,587.807 388.937,587.807L392.149,587.807C392.419,587.807 392.638,588.026 392.638,588.296Z" style="fill:rgb(63,61,86);"/></g><g transform="matrix(-1,7.65714e-16,-7.65714e-16,-1,588.969,1149.13)"><path d="M384.261,588.296L384.261,589.832C384.261,590.102 384.042,590.32 383.772,590.32L380.56,590.32C380.291,590.32 380.072,590.102 380.072,589.832L380.072,588.296C380.072,588.026 380.291,587.807 380.56,587.807L383.772,587.807C384.042,587.807 384.261,588.026 384.261,588.296Z" style="fill:rgb(63,61,86);"/></g><g transform="matrix(-1,7.65714e-16,-7.65714e-16,-1,572.215,1149.13)"><path d="M375.884,588.296L375.884,589.832C375.884,590.102 375.665,590.32 375.395,590.32L372.183,590.32C371.914,590.32 371.695,590.102 371.695,589.832L371.695,588.296C371.695,588.026 371.914,587.807 372.183,587.807L375.395,587.807C375.665,587.807 375.884,588.026 375.884,588.296Z" style="fill:rgb(63,61,86);"/></g><g transform="matrix(-1,7.65714e-16,-7.65714e-16,-1,555.462,1149.13)"><path d="M367.507,588.296L367.507,589.832C367.507,590.102 367.288,590.32 367.018,590.32L363.806,590.32C363.537,590.32 363.318,590.102 363.318,589.832L363.318,588.296C363.318,588.026 363.537,587.807 363.806,587.807L367.018,587.807C367.288,587.807 367.507,588.026 367.507,588.296Z" style="fill:rgb(63,61,86);"/></g><g transform="matrix(-1,7.65714e-16,-7.65714e-16,-1,538.708,1149.13)"><path d="M359.13,588.296L359.13,589.832C359.13,590.102 358.911,590.32 358.641,590.32L355.429,590.32C355.16,590.32 354.941,590.102 354.941,589.832L354.941,588.296C354.941,588.026 355.16,587.807 355.429,587.807L358.641,587.807C358.911,587.807 359.13,588.026 359.13,588.296Z" style="fill:rgb(63,61,86);"/></g><g transform="matrix(-1,7.65714e-16,-7.65714e-16,-1,521.954,1149.13)"><path d="M350.753,588.296L350.753,589.832C350.753,590.102 350.534,590.32 350.264,590.32L347.052,590.32C346.783,590.32 346.564,590.102 346.564,589.832L346.564,588.296C346.564,588.026 346.783,587.807 347.052,587.807L350.264,587.807C350.534,587.807 350.753,588.026 350.753,588.296Z" style="fill:rgb(63,61,86);"/></g><g transform="matrix(-1,7.65714e-16,-7.65714e-16,-1,663.525,1159.18)"><path d="M436.198,593.322L436.198,594.858C436.198,595.128 435.979,595.347 435.71,595.347L403.178,595.347C402.909,595.347 402.69,595.128 402.69,594.858L402.69,593.322C402.69,593.052 402.909,592.834 403.178,592.834L435.71,592.834C435.979,592.834 436.198,593.052 436.198,593.322Z" style="fill:rgb(63,61,86);"/></g><g transform="matrix(1,0,0,1,-175.363,-28.9988)"><path d="M648.323,591.251L705.163,541.557C707.865,539.194 702.711,546.234 705.074,548.937C707.437,551.639 716.422,548.981 713.719,551.344L656.88,601.038L642.485,604.325L648.323,591.251Z" style="fill:rgb(63,61,86);fill-rule:nonzero;"/></g><g transform="matrix(1,0,0,1,-175.363,-28.9988)"><path d="M648.323,591.251L649.701,590.046C651.54,590.968 653.181,592.241 654.531,593.793C656.129,595.617 657.291,597.782 657.926,600.123L656.879,601.038L645.407,603.656L642.485,604.325L643.703,601.586L648.323,591.251Z" style="fill:rgb(204,204,204);fill-rule:nonzero;"/></g><g transform="matrix(1,0,0,1,-175.363,-28.9988)"><path d="M643.704,601.586C644.567,601.966 645.2,602.735 645.407,603.656L642.485,604.325L643.704,601.586Z" style="fill:rgb(63,61,86);fill-rule:nonzero;"/></g><g transform="matrix(1,0,0,1,-175.363,-28.9988)"><path d="M1019.18,431.979C1013.82,439.999 1005.24,445.549 996.003,448.299C992.25,449.416 988.375,450.074 984.463,450.259C983.98,445.836 982.824,441.512 981.033,437.439C981.215,441.774 980.612,446.108 979.253,450.229C973.38,449.896 967.637,448.357 962.383,445.709C952.133,440.459 944.243,430.419 942.493,419.029C940.433,405.729 946.463,392.669 948.643,379.389C950.833,366.109 946.723,349.289 933.723,345.799C923.823,343.139 924.933,344.289 916.703,350.399C925.264,363.057 893.644,409.444 880.703,405.399C873.387,403.112 868.703,396.399 867.193,396.399C857.023,413.919 876.173,443.439 856.873,449.569L858.463,447.979C870.113,433.649 845.763,403.319 857.413,388.989C860.663,384.979 864.123,380.229 863.163,375.159C862.253,370.339 854.603,367.789 852.363,371.749C856.393,362.519 850.443,350.199 840.593,347.829C831.843,345.719 832.003,348.319 823.223,349.449C822.649,345.654 821.577,341.952 820.033,338.439C820.194,342.225 819.752,346.012 818.723,349.659C815.622,349.598 812.626,348.515 810.203,346.579C803.043,340.809 804.493,328.689 810.883,322.079C817.283,315.469 826.793,313.089 835.863,311.549C838.5,293.188 889.159,291.273 895.873,309.619C898.733,295.919 915.883,288.809 929.213,293.059C942.543,297.309 951.793,309.759 956.663,322.879C961.533,335.989 962.893,350.099 965.893,363.759C968.893,377.419 973.963,391.329 984.403,400.639C994.843,409.939 1011.85,413.019 1022.85,404.379C1026.32,413.379 1024.53,423.949 1019.18,431.979Z" style="fill:rgb(47,46,65);fill-rule:nonzero;"/></g></svg>