<?xml version="1.0" encoding="UTF-8" standalone="no"?><!DOCTYPE svg PUBLIC "-//W3C//DTD SVG 1.1//EN" "http://www.w3.org/Graphics/SVG/1.1/DTD/svg11.dtd"><svg width="100%" height="100%" viewBox="0 0 525 419" version="1.1" xmlns="http://www.w3.org/2000/svg" xmlns:xlink="http://www.w3.org/1999/xlink" xml:space="preserve" xmlns:serif="http://www.serif.com/" style="fill-rule:evenodd;clip-rule:evenodd;stroke-linejoin:round;stroke-miterlimit:2;"><g id="Layer1"></g><path d="M442.174,400.477C444.24,400.606 445.381,398.039 443.817,396.543L443.662,395.925C443.682,395.876 443.703,395.826 443.723,395.777C444.955,392.837 448.349,391.445 451.295,392.663C460.609,396.514 450.775,405.363 451.514,411.351C451.773,413.418 459.869,413.531 459.411,415.559C463.716,406.147 465.979,395.871 465.976,385.536C465.975,382.94 465.832,380.343 465.54,377.754C465.301,375.635 464.97,373.53 464.543,371.444C462.234,360.167 457.237,349.428 450.033,340.459C446.57,338.568 448.682,335.609 446.937,332.064C446.31,330.785 440.719,330.756 440.486,329.355C440.736,329.387 444.35,325.634 443.156,323.778C442.371,322.557 442.615,321.002 443.624,319.958C443.723,319.855 443.817,319.747 443.902,319.631C446.883,315.587 450.992,316.291 453.139,321.785C457.722,324.096 457.768,327.932 454.958,331.622C453.17,333.969 452.925,337.145 451.356,339.658C451.518,339.864 451.686,340.064 451.847,340.271C454.81,344.068 457.372,348.149 459.533,352.437C458.921,347.671 459.82,341.929 461.354,338.227C463.114,333.978 466.424,330.405 469.323,326.73C472.786,322.341 479.833,324.333 480.446,329.89C480.452,329.943 480.458,329.996 480.463,330.05C480.034,330.292 479.614,330.549 479.204,330.821C476.865,332.369 477.676,335.995 480.448,336.421L480.511,336.431C480.356,337.975 474.878,342.838 474.491,344.343C478.196,358.651 475.424,360.54 464.025,360.78L463.427,361.632C464.507,364.738 465.376,367.918 466.029,371.139C466.643,374.13 467.071,377.152 467.311,380.188C467.609,384.018 467.585,387.867 467.263,391.691L467.282,391.556C468.101,387.344 470.386,383.41 473.705,380.683C478.65,376.619 485.636,375.12 490.971,371.853C493.538,370.28 496.83,372.31 496.383,375.288L496.361,375.431C495.567,375.754 494.792,376.129 494.043,376.549C493.614,376.791 493.193,377.049 492.783,377.32C490.443,378.869 491.255,382.496 494.028,382.921L494.09,382.93C494.136,382.937 494.174,382.943 494.219,382.95C492.858,386.186 479.884,390.751 477.508,393.342C475.198,405.84 476.333,405.468 465.697,401.832L465.691,401.832C464.53,406.896 462.833,411.844 460.651,416.56L442.631,416.566C442.567,416.366 442.508,416.159 442.45,415.959C444.117,416.062 445.796,415.965 447.436,415.66C446.099,414.02 444.761,412.367 443.424,410.727C443.391,410.695 443.365,410.663 443.34,410.63L443.319,410.605L441.464,404.498C441.61,403.143 441.849,401.8 442.174,400.477L442.174,400.477L442.174,400.477Z" style="fill:rgb(242,242,242);fill-rule:nonzero;"/><path d="M251.744,416.42L92.287,416.475C84.277,416.478 77.101,412.338 73.093,405.402C71.089,401.934 70.087,398.129 70.085,394.323C70.084,390.518 71.084,386.712 73.085,383.242L152.763,238.193C156.767,231.254 163.94,227.11 171.95,227.107C179.961,227.104 187.137,231.244 191.145,238.18L270.934,383.192C272.932,386.651 273.932,390.452 273.933,394.255C273.932,398.058 272.933,401.864 270.931,405.334C266.928,412.273 259.755,416.417 251.744,416.42L251.744,416.42L251.744,416.42ZM72.09,394.32C72.09,397.784 89.685,390.32 91.508,393.475C95.154,399.786 84.999,414.478 92.287,414.475C92.287,414.475 265.557,410.647 269.199,404.334C271.019,401.178 271.929,397.715 271.928,394.253C271.927,390.791 271.015,387.33 269.191,384.175L189.403,239.163C185.767,232.87 179.239,229.105 171.951,229.107C164.666,229.11 72.09,390.856 72.09,394.32L72.09,394.32Z" style="fill:rgb(63,61,86);fill-rule:nonzero;"/><path d="M253.515,414.419C251.517,418.42 345.129,417.191 346.236,417.19C346.236,417.19 372.548,416.609 373.101,415.65C373.377,415.171 373.515,414.645 373.515,414.119C373.515,413.594 373.376,413.068 373.1,412.589L360.983,390.568C360.431,389.613 359.44,389.041 358.333,389.041C358.287,389.041 358.219,389.082 358.131,389.16C341.968,403.604 322.049,413.153 300.374,413.475C277.327,413.818 253.642,414.165 253.515,414.419L253.515,414.419L253.515,414.419Z" style="fill:rgb(63,61,86);fill-rule:nonzero;"/><path d="M0,417.081C0,417.741 0.53,418.271 1.19,418.271L523.48,418.09C524.14,418.09 524.67,417.56 524.67,416.9C524.67,416.24 524.14,415.71 523.48,415.71L1.19,415.891C0.53,415.891 -0,416.421 -0,417.081Z" style="fill:rgb(204,204,204);fill-rule:nonzero;"/><g><path d="M403.878,411.305L394.833,411.308L390.518,376.422L403.867,376.418L403.878,411.305Z" style="fill:rgb(160,97,106);fill-rule:nonzero;"/><path d="M372.889,411.111C372.608,411.585 372.46,413.116 372.46,413.668C372.461,415.363 373.835,416.737 375.531,416.737L403.541,416.727C404.698,416.726 405.635,415.789 405.635,414.632L405.634,413.466C405.634,413.466 407.019,409.96 404.165,405.641C404.165,405.641 400.62,409.025 395.32,403.729L393.757,400.899L382.45,409.174L376.182,409.948C374.81,410.117 373.594,409.923 372.889,411.111L372.889,411.111Z" style="fill:rgb(47,46,65);fill-rule:nonzero;"/></g><g><path d="M369.197,381.468L360.63,384.366L345.369,352.7L358.014,348.421L369.197,381.468Z" style="fill:rgb(160,97,106);fill-rule:nonzero;"/><path d="M339.779,391.208C339.664,391.748 340.014,393.245 340.191,393.768C340.734,395.374 342.477,396.235 344.083,395.691L370.615,386.711C371.71,386.34 372.298,385.152 371.927,384.056L371.553,382.951C371.553,382.951 371.742,379.187 367.655,376.01C367.655,376.01 365.381,380.351 358.664,377.031L356.276,374.851L348.216,386.311L342.525,389.052C341.28,389.651 340.066,389.856 339.779,391.208L339.779,391.208L339.779,391.208Z" style="fill:rgb(47,46,65);fill-rule:nonzero;"/></g><path d="M355.226,179.09L337.683,237.191L316.972,289.452L349.761,364.086L361.918,358.677L347.371,290.117L377.878,243.594L392.114,388.826L404.273,388.147L420.763,212.843L423.114,174.676L355.226,179.09Z" style="fill:rgb(47,46,65);fill-rule:nonzero;"/><path d="M408.21,50.385L382.542,55.123L380.519,66.607L364.985,74.043L356.908,158.486C356.908,158.486 343.403,176.054 354.214,181.455L423.114,174.676C423.114,174.676 426.488,162.185 423.11,161C419.732,159.815 419.721,129.981 419.721,129.981L435.237,68.615L412.266,60.517L408.21,50.385Z" style="fill:rgb(230,230,230);fill-rule:nonzero;"/><circle cx="393.07" cy="29.436" r="20.728" style="fill:rgb(160,97,106);"/><path d="M406.796,32.512C405.142,33.418 406.711,37.741 405.678,38.115C404.483,38.547 400.126,33.588 400.072,28.033C400.056,26.352 400.443,25.545 400.07,23.551C399.584,20.944 398.09,17.869 396.707,17.95C395.888,17.999 395.087,19.158 395.027,20.192C394.944,21.641 396.352,22.212 396.149,22.992C395.763,24.48 389.851,25.506 387.746,22.995C386.096,21.027 387.361,17.571 386.623,17.394C386.08,17.263 385.496,19.166 383.264,21.316C382.422,22.126 381.172,23.331 380.463,22.998C379.439,22.516 380.183,19.122 379.902,19.077C379.668,19.039 379.522,21.425 378.222,23.559C376.553,26.3 373.108,28.413 371.501,27.483C370.517,26.913 370.439,25.327 370.38,24.122C370.255,21.584 366.567,15.745 367.521,13.03C369.463,7.504 372.791,11.399 374.296,9.555C376.334,7.058 378.162,8.401 381.577,5.631C384.914,2.926 384.943,0.206 387.178,0.027C389.19,-0.134 389.905,2.012 392.22,1.706C394.181,1.446 394.607,-0.218 396.141,0.024C397.545,0.246 397.637,1.713 399.503,2.264C400.694,2.616 400.956,2.106 402.304,2.263C405.109,2.588 406.994,5.144 407.347,5.622C408.708,7.467 408.18,8.246 409.589,10.103C410.805,11.705 413.498,11.025 414.511,11.825C417.82,14.439 419.242,19.26 419.271,24.754C419.291,28.597 418.79,30.539 417.672,35.39C416.823,39.073 412.89,43.833 410.722,45.956C410.14,46.526 408.509,48.123 407.361,47.638C406.274,47.178 406.241,45.11 406.24,44.837C406.235,43.898 406.485,42.736 408.479,39.794C410.574,36.704 411.406,36.352 411.279,35.312C411.054,33.474 408.114,31.791 406.796,32.512L406.796,32.512L406.796,32.512Z" style="fill:rgb(47,46,65);fill-rule:nonzero;"/><g><path d="M334.495,225.76C333.849,231.162 336.114,235.875 339.552,236.285C342.99,236.696 346.3,232.649 346.945,227.246C347.227,224.882 346.952,222.649 346.265,220.851L348.712,197.925L337.928,197.006L336.661,219.705C335.57,221.29 334.777,223.395 334.495,225.76L334.495,225.76L334.495,225.76Z" style="fill:rgb(160,97,106);fill-rule:nonzero;"/><path d="M365.491,73.498C365.491,73.498 359.904,73.577 356.205,80.802C354.24,84.64 343.723,156.429 343.723,156.429L334.036,215.238L350.538,215.321L363.397,159.628L374.214,127.327L365.491,73.498L365.491,73.498Z" style="fill:rgb(230,230,230);fill-rule:nonzero;"/></g><path d="M411.93,217.13C410.349,222.337 411.754,227.373 415.067,228.378C418.381,229.384 422.348,225.978 423.928,220.772C424.62,218.493 424.739,216.246 424.377,214.357L430.796,192.211L420.34,189.42L415.122,211.547C413.77,212.917 412.621,214.851 411.93,217.13L411.93,217.13Z" style="fill:rgb(160,97,106);fill-rule:nonzero;"/><path d="M423.416,69.632C423.416,69.632 431.52,63.55 438.278,73.005C445.037,82.46 447.766,160.143 447.766,160.143L428.868,208.112L414.68,203.388L428.17,144.613L404.512,100.037L423.416,69.632L423.416,69.632Z" style="fill:rgb(230,230,230);fill-rule:nonzero;"/><g><circle cx="218.48" cy="311.431" r="73" style="fill:rgb(39,120,189);"/><g><circle cx="218.493" cy="349.479" r="6.703" style="fill:white;"/><path d="M218.464,266.681C217.848,270.773 218.952,271.629 218.958,289.267C218.964,306.904 222.623,330.552 218.486,330.554C214.349,330.555 212.836,281.751 198.469,277.432C181.579,272.353 220.457,253.437 218.464,266.681L218.464,266.681Z" style="fill:white;fill-rule:nonzero;"/></g></g><path d="M120.503,348.702L113.908,362.637C121.881,356.92 134.335,351.991 144.245,349.352C135.011,344.891 123.712,337.7 116.962,330.58L120.755,345.304C76.281,336.246 44.344,302.128 44.33,263.045L42.724,262.492C42.738,303.315 74.234,339.453 120.503,348.702L120.503,348.702Z" style="fill:rgb(63,61,86);fill-rule:nonzero;"/></svg>